<?xml version="1.0" standalone="no"?>
<!DOCTYPE svg PUBLIC "-//W3C//DTD SVG 1.1//EN" "http://www.w3.org/Graphics/SVG/1.1/DTD/svg11.dtd" >
<svg xmlns="http://www.w3.org/2000/svg">
<metadata>
This is a custom SVG webfont generated by Font Squirrel.
Copyright   : Copyright c 2008 by GType Designed and digitized by Nick Cooke All rights reserved
Designer    : Nick Cooke
Foundry     : GType Designed and digitized by Nick Cooke
</metadata>
<defs>
<font id="HouschkaProMedium" horiz-adv-x="1228" >
<font-face units-per-em="2048" ascent="1556" descent="-492" />
<missing-glyph horiz-adv-x="520" />
<glyph unicode=" "  horiz-adv-x="520" />
<glyph unicode="&#x09;" horiz-adv-x="520" />
<glyph unicode="&#xa0;" horiz-adv-x="520" />
<glyph unicode="!" horiz-adv-x="532" d="M188 76q0 39 27 66.5t68 27.5t67.5 -27.5t26.5 -66.5t-26.5 -66.5t-67.5 -27.5t-68 27.5t-27 66.5zM190 1374q0 20 19 21h149q20 0 17 -21l-39 -962q0 -20 -19 -21h-67q-18 0 -19 21z" />
<glyph unicode="&#x22;" horiz-adv-x="581" d="M76 1360q-4 35 24 35h105q29 0 24 -35l-24 -354q-2 -31 -29 -31h-49q-27 0 -29 31zM352 1360q-4 35 25 35h104q29 0 25 -35l-25 -354q-2 -31 -26 -31h-52q-27 0 -26 31z" />
<glyph unicode="#" horiz-adv-x="1392" d="M0 266v82q0 18 18 19h324l80 372h-303q-18 0 -19 19v82q0 18 19 18h327l82 389q4 20 29 21h74q23 0 18 -31l-82 -379h383l84 389q6 20 29 21h72q25 0 18 -31l-82 -379h301q20 0 21 -18v-82q0 -18 -21 -19h-325l-78 -372h305q18 0 18 -19v-82q0 -18 -18 -18h-330l-82 -389 q-6 -20 -26 -21h-76q-27 0 -19 27l80 383h-383l-82 -389q-2 -20 -26 -21h-76q-23 0 -16 27l79 383h-299q-18 0 -18 18zM465 367h383l78 372h-383z" />
<glyph unicode="$" d="M154 131l47 98q6 16 26 7q59 -37 97 -57.5t117 -44t159 -23.5q135 0 215 57q86 68 86 186q0 127 -166 199q-47 20 -175 58t-204 75q-193 96 -192 285q0 162 112 250q106 90 297 96v137q0 20 21 21h45q20 0 20 -21v-135q205 -6 345 -90q16 -8 8 -27l-45 -96 q-10 -16 -29 -6q-150 88 -322 88q-160 0 -233 -68q-59 -51 -59 -145q0 -68 48 -113t140 -78q33 -12 173 -53t212 -82q170 -100 170 -282q0 -186 -137 -291q-102 -82 -271 -94v-134q0 -18 -20 -18h-45q-20 0 -21 18v132q-229 8 -409 124q-18 11 -10 27z" />
<glyph unicode="%" horiz-adv-x="1331" d="M51 1098q0 129 92.5 221t221.5 92q127 0 220 -92t93 -221t-93 -221.5t-220 -92.5q-129 0 -221.5 91.5t-92.5 222.5zM135 1098q0 -94 66.5 -161t160.5 -67q96 0 162 67t66 161t-66.5 160.5t-161 66.5t-161 -66.5t-66.5 -160.5zM182 23l869 1355q10 16 26 17h62 q12 0 15 -7.5t-3 -17.5l-868 -1356q-8 -14 -27 -14h-61q-27 0 -13 23zM653 293q0 129 93.5 221t220.5 92q129 0 221 -92t92 -221t-92 -221t-221 -92t-221.5 92t-92.5 221zM739 293q0 -96 66.5 -163t163.5 -67q94 0 159.5 67t65.5 163q0 94 -65.5 160.5t-160 66.5t-162 -66.5 t-67.5 -160.5z" />
<glyph unicode="&#x26;" horiz-adv-x="1341" d="M88 379q0 233 305 389q-88 170 -88 299q0 150 88 234.5t240 84.5q143 0 224 -77.5t81 -206.5q0 -70 -26.5 -127t-87 -105.5t-104.5 -76t-130 -72.5q131 -229 338 -410q84 123 84 332q0 20 18 21h105q20 0 20 -21q0 -252 -108 -412q135 -102 231 -102q20 0 20 -25v-106 q0 -18 -22 -18q-137 0 -330 135q-152 -135 -383 -135q-209 0 -342 99t-133 300zM240 377q0 -139 90 -209t245 -70q162 0 263 101q-229 197 -383 452q-215 -114 -215 -274zM455 1063q0 -100 71 -227q63 33 92 48t80.5 51t74 77t22.5 88q0 78 -44 122t-120 44 q-80 0 -128 -53.5t-48 -149.5z" />
<glyph unicode="'" horiz-adv-x="305" d="M76 1360q-4 35 24 35h105q29 0 24 -35l-24 -354q-2 -31 -29 -31h-49q-27 0 -29 31z" />
<glyph unicode="(" horiz-adv-x="559" d="M104 651q0 565 240 938q16 25 41 25h98q45 0 23 -41q-242 -408 -242 -922t242 -923q23 -39 -23 -39h-98q-27 0 -41 22q-117 182 -178.5 428t-61.5 512z" />
<glyph unicode=")" horiz-adv-x="559" d="M53 -272q242 410 242 923.5t-242 921.5q-23 41 23 41h98q27 0 41 -25q240 -373 240 -938q0 -266 -61.5 -511.5t-178.5 -428.5q-14 -23 -41 -22h-98q-46 0 -23 39z" />
<glyph unicode="*" horiz-adv-x="866" d="M96 1237q12 49 72 29q41 -12 78 -27l151 -59l-10 163q-4 74 -4 82q0 59 49 60q51 0 51 -60q0 -8 -4 -82l-8 -163l152 59q35 14 75 27q57 20 72 -29q16 -49 -41 -66q-10 -4 -36.5 -10t-43.5 -10l-155 -41l102 -127q41 -49 53 -63q33 -47 -4 -78q-41 -29 -78 18 q-4 6 -11 17.5t-15.5 22.5t-18.5 28l-90 137l-88 -137q-37 -57 -45 -68q-37 -45 -76 -18q-41 31 -4 78q10 16 51 63l103 127l-158 41l-78 20q-59 19 -41 66z" />
<glyph unicode="+" horiz-adv-x="1146" d="M80 672v102q0 18 18 19h404v403q0 20 20 21h103q18 0 18 -21v-403h406q18 0 18 -19v-102q0 -20 -18 -21h-406v-403q0 -20 -18 -21h-103q-20 0 -20 21v403h-404q-18 1 -18 21z" />
<glyph unicode="," horiz-adv-x="401" d="M100 78q0 41 26 65.5t71 24.5q111 0 114 -137q2 -70 -45 -134.5t-114 -91.5q-20 -6 -31 7l-17 24q-8 16 9 29q61 47 61 84q0 23 -37 53.5t-37 75.5z" />
<glyph unicode="-" horiz-adv-x="1021" d="M182 543v102q0 18 19 19h620q18 0 19 -19v-102q0 -20 -19 -21h-620q-19 1 -19 21z" />
<glyph unicode="." horiz-adv-x="376" d="M100 76q0 39 28 65.5t66.5 26.5t66.5 -26.5t28 -65.5t-28 -67.5t-66.5 -28.5t-66.5 27.5t-28 68.5z" />
<glyph unicode="/" horiz-adv-x="763" d="M-49 27l690 1347q10 20 31 21h121q8 0 14 -4.5t6 -10.5t-2 -12l-692 -1350q-8 -18 -29 -18h-123q-32 0 -16 27z" />
<glyph unicode="0" d="M96 696.5q0 352.5 133 534.5t385 182t384 -182t132 -534.5t-132 -534.5t-384 -182t-385 182t-133 534.5zM256 696q0 -287 94 -432q88 -135 264 -135q170 0 263 135q92 145 92 432t-92 432q-88 135 -263 136q-172 0 -262 -136q-96 -151 -96 -432z" />
<glyph unicode="1" d="M242 1141v100q0 20 20 29l332 129q25 10 43 10h74q20 0 20 -20v-1248h285q20 0 20 -20v-103q0 -18 -20 -18h-752q-20 0 -20 18v103q0 20 20 20h303v1096l-297 -115q-28 -8 -28 19z" />
<glyph unicode="2" d="M160 18v58q0 143 30.5 229t104.5 160q76 78 241.5 170t217.5 131q129 98 129 240q0 106 -66 182q-78 88 -227 88q-158 0 -330 -117q-25 -12 -33 6l-45 88q-8 16 8 29q203 131 412 131q215 0 340 -137q96 -109 96 -266q0 -199 -172 -334q-68 -55 -223.5 -141t-220.5 -148 q-49 -47 -68.5 -100.5t-19.5 -145.5h696q18 0 19 -20v-103q0 -18 -19 -18h-850q-20 0 -20 18z" />
<glyph unicode="3" d="M154 102l43 91q10 18 32 4q131 -86 299 -86q131 0 213 57q106 76 107 217q0 150 -131 225q-74 41 -211 41h-64q-20 0 -20 21v92q0 18 20 18h54q135 0 213 54q96 66 96 192q0 113 -82 184q-78 63 -182 64q-147 0 -291 -96q-23 -14 -33 4l-43 84q-10 20 8 30 q176 115 369 115q162 0 272 -90q129 -104 129 -276q0 -238 -225 -320q133 -39 205 -130t72 -224q0 -186 -146 -297q-123 -96 -319 -96q-229 0 -375 90q-20 14 -10 32z" />
<glyph unicode="4" horiz-adv-x="1230" d="M90 340v88q0 14 14 37l639 917q14 23 41 23h107q20 0 20 -19v-931h199q20 0 20 -19v-96q0 -20 -20 -21h-199v-301q0 -18 -20 -18h-119q-18 0 -18 18v301h-643q-21 1 -21 21zM268 455h486v708z" />
<glyph unicode="5" d="M168 139l43 92q10 16 27 5q76 -66 150.5 -95.5t186.5 -29.5q145 0 238 92q92 96 92 235q0 147 -86 238q-82 88 -211 88q-106 0 -186 -51q-55 -35 -98 -90q-6 -14 -29 -11l-74 19q-20 2 -20 31l55 712q0 20 18 21h715q20 0 21 -21v-102q0 -18 -21 -19h-594l-37 -454 q49 43 117 67q70 29 154 29q203 0 323 -131q111 -123 111 -324q0 -193 -123 -321q-139 -139 -365 -139q-250 0 -395 129q-20 10 -12 30z" />
<glyph unicode="6" d="M137 633q0 344 125 547q145 233 424 233q111 0 203 -24q82 -20 155 -64q16 -10 9 -29l-45 -94q-8 -16 -31 -4q-68 35 -135 53q-74 20 -158 21q-203 0 -303 -189q-78 -145 -78 -403q55 80 127 123q94 59 215 59q219 0 338 -137q98 -115 98 -299q0 -207 -135 -332 q-127 -115 -319 -114q-227 0 -346 137q-144 160 -144 516zM301 522q10 -174 70 -270q82 -133 258 -133q133 0 214 85t81 218q0 139 -79 220t-216 81q-222 0 -328 -201z" />
<glyph unicode="7" d="M147 1053v321q0 20 21 21h876q20 0 21 -21v-90q0 -12 -10 -37l-574 -1229q-10 -18 -30 -18h-132q-33 0 -16 31l471 977q35 72 133 245h-614v-200q0 -20 -21 -21h-104q-21 1 -21 21z" />
<glyph unicode="8" d="M123 356q0 78 31.5 142.5t88 109.5t106.5 74t116 55q-131 59 -211 136t-80 200q0 170 126 255t312 85q178 0 310.5 -86t132.5 -258q0 -66 -24.5 -121t-73 -94t-90.5 -64.5t-103 -52.5q78 -35 126 -62.5t104.5 -73.5t84 -106.5t27.5 -136.5q0 -178 -130 -278t-362 -100 q-233 0 -362 99t-129 277zM283 369q0 -121 84 -194t247.5 -73t248.5 72t85 193q0 111 -91 178t-251 125q-147 -51 -235 -121.5t-88 -179.5zM334 1073q0 -55 25.5 -100t73.5 -78t89 -52.5t101 -41.5q274 104 274 260q0 113 -81 171t-200 58q-121 0 -201.5 -51t-80.5 -166z " />
<glyph unicode="9" d="M141 965q0 207 135 331q127 115 320 115q227 0 346 -137q143 -160 143 -516q0 -344 -124 -547q-145 -233 -424 -234q-111 0 -203 25q-82 20 -156 64q-16 10 -8 28l45 94q8 16 31 5q68 -35 135 -54q74 -20 158 -20q203 0 303 188q78 145 78 404q-55 -80 -127 -123 q-94 -59 -215 -60q-219 0 -338 138q-99 115 -99 299zM299 969q0 -143 78 -223t217 -80q217 0 328 208q-10 193 -93.5 295.5t-232.5 102.5q-135 0 -216 -86t-81 -217z" />
<glyph unicode=":" horiz-adv-x="391" d="M104 76q0 39 28 65.5t67 26.5t65.5 -26.5t26.5 -65.5q0 -41 -26.5 -68.5t-65.5 -27.5t-67 27.5t-28 68.5zM104 850q0 39 28 65.5t67 26.5t65.5 -26.5t26.5 -65.5q0 -41 -26.5 -68.5t-65.5 -27.5t-67 27.5t-28 68.5z" />
<glyph unicode=";" horiz-adv-x="391" d="M104 78q0 41 27 65.5t72 24.5q111 0 114 -137q0 -70 -47 -134.5t-114 -91.5q-20 -6 -31 7l-14 24q-10 16 6 29q61 47 61 84q0 23 -37 53.5t-37 75.5zM111 850q0 39 27.5 65.5t66.5 26.5t66.5 -26.5t27.5 -65.5q0 -41 -27.5 -68.5t-66.5 -27.5t-66.5 27.5t-27.5 68.5z" />
<glyph unicode="&#x3c;" horiz-adv-x="1257" d="M102 655v133q0 23 19 31l991 424q27 10 27 -14v-121q0 -23 -21 -31l-844 -354l844 -356q20 -6 21 -31v-121q0 -25 -27 -14l-991 426q-19 8 -19 28z" />
<glyph unicode="=" horiz-adv-x="1146" d="M80 424v102q0 20 18 21h951q18 0 18 -21v-102q0 -18 -18 -18h-951q-18 0 -18 18zM80 915v103q0 20 18 20h951q18 0 18 -20v-103q0 -18 -18 -18h-951q-18 0 -18 18z" />
<glyph unicode="&#x3e;" horiz-adv-x="1259" d="M119 215v121q0 25 18 31l844 356l-844 354q-18 8 -18 31v121q0 23 26 14l992 -424q18 -8 18 -31v-133q0 -20 -18 -28l-992 -426q-26 -9 -26 14z" />
<glyph unicode="?" horiz-adv-x="1003" d="M51 1208q-8 14 10 31q188 174 445 174q184 0 303 -108q127 -111 127 -291q0 -111 -52.5 -183.5t-158.5 -148.5q-111 -82 -148.5 -142.5t-41.5 -156.5q-2 -20 -25 -21h-76q-18 0 -24 17q-12 39 -13 82q0 104 95 203q23 25 50 48t70 57t68 54q100 84 100 191q0 123 -84 194 q-76 70 -198 70q-188 0 -377 -158q-14 -14 -27 4zM369 76q0 39 27.5 65.5t66.5 26.5t66.5 -26.5t27.5 -65.5q0 -41 -27.5 -68.5t-66.5 -27.5t-66.5 27.5t-27.5 68.5z" />
<glyph unicode="@" horiz-adv-x="1640" d="M100 694q0 295 224.5 508t537.5 213q293 0 485.5 -166t192.5 -444q0 -219 -100.5 -375t-259.5 -156q-113 0 -125 109q-88 -111 -267 -111q-111 0 -192 54q-98 66 -98 182q0 162 209 225q123 37 337 47q0 135 -63 195q-63 61 -168 61q-123 0 -233 -75q-23 -10 -29 6 l-19 34q-6 14 11 27q129 84 270 84q133 0 221 -78q94 -84 94 -254v-352q0 -82 66 -82q109 0 190.5 124t81.5 333q0 248 -170 395.5t-434 147.5q-283 0 -485.5 -192.5t-202.5 -461.5q0 -297 195.5 -479t500.5 -182q152 0 293.5 31.5t214.5 76.5q23 16 29 -6l12 -37 q6 -14 -10 -22q-84 -49 -236.5 -81t-302.5 -32q-338 0 -554 201.5t-216 531.5zM580 506q0 -74 61 -121q55 -43 150 -43q180 0 253 125v244q-217 -10 -323 -47q-141 -45 -141 -158z" />
<glyph unicode="A" horiz-adv-x="1415" d="M150 18v795q0 279 174 447q147 154 382.5 153.5t385.5 -153.5q172 -170 172 -447v-795q0 -18 -19 -18h-125q-20 0 -20 18v467h-787v-467q0 -18 -20 -18h-123q-20 0 -20 18zM313 631h787v176q0 211 -111 334q-111 121 -282 121q-168 0 -283 -121q-111 -127 -111 -334v-176 z" />
<glyph unicode="B" horiz-adv-x="1296" d="M154 18v1356q0 20 18 21h455q193 0 305 -76q150 -98 149 -279q0 -225 -186 -307v-8q145 -25 223 -118t78 -234q0 -184 -134 -278.5t-327 -94.5h-563q-18 0 -18 18zM317 133h385q109 0 179 31q150 63 149 227q0 145 -123 211q-70 41 -264 41h-326v-510zM317 774h295 q131 0 191 31q115 63 115 211q0 135 -109 201q-76 45 -176 45h-316v-488z" />
<glyph unicode="C" horiz-adv-x="1349" d="M96 698q0 295 214 505t515 210q233 0 426 -110q23 -12 13 -31l-50 -103q-8 -18 -28 -6q-182 102 -365 103q-225 0 -390 -168t-165 -400q0 -250 163 -410.5t394 -160.5q197 0 369 104q16 12 29 -6l49 -106q2 -4 1 -9q0 -11 -11 -18q-199 -113 -439 -112q-315 0 -520 197 t-205 521z" />
<glyph unicode="D" horiz-adv-x="1511" d="M154 18v1356q0 20 18 21h500q381 0 579 -221q164 -180 164 -478q0 -418 -317 -596q-182 -100 -457 -100h-469q-18 0 -18 18zM317 137h310q219 0 364 76q256 135 256 483q0 246 -127 385q-154 174 -473 174h-330v-1118z" />
<glyph unicode="E" horiz-adv-x="1224" d="M154 18v1356q0 20 18 21h961q18 0 18 -21v-104q0 -20 -18 -21h-816v-479h709q18 0 18 -18v-107q0 -18 -18 -18h-709v-482h816q18 0 18 -20v-107q0 -18 -18 -18h-961q-18 0 -18 18z" />
<glyph unicode="F" horiz-adv-x="1148" d="M154 18v1356q0 20 18 21h897q18 0 18 -21v-104q0 -20 -18 -21h-752v-479h652q18 0 18 -18v-107q0 -18 -18 -18h-652v-609q0 -18 -20 -18h-125q-18 0 -18 18z" />
<glyph unicode="G" horiz-adv-x="1511" d="M96 698q0 295 213 505t516 210q233 0 426 -110q23 -12 13 -31l-50 -103q-8 -18 -28 -6q-190 102 -365 103q-229 0 -392 -168t-163 -400q0 -258 159 -415.5t396 -157.5q240 0 393 129v293h-419q-20 0 -21 20v105q0 20 21 20h555q20 0 20 -20v-654q0 -18 -20 -18h-115 q-20 0 -21 18v84q-172 -123 -405 -122q-305 0 -509 191t-204 527z" />
<glyph unicode="H" horiz-adv-x="1470" d="M154 18v1356q0 20 18 21h125q20 0 20 -21v-602h836v602q0 20 21 21h124q18 0 19 -21v-1356q0 -18 -19 -18h-124q-20 0 -21 18v609h-836v-609q0 -18 -20 -18h-125q-18 0 -18 18z" />
<glyph unicode="I" horiz-adv-x="471" d="M154 18v1356q0 20 18 21h125q20 0 20 -21v-1356q0 -18 -20 -18h-125q-18 0 -18 18z" />
<glyph unicode="J" horiz-adv-x="1050" d="M25 139l57 97q12 20 29 6q129 -117 276 -117q162 0 258 98q94 98 94 291v860q0 20 19 21h125q20 0 20 -21v-872q0 -258 -151 -396q-139 -127 -365 -126q-199 0 -356 129q-9 9 -9 19q0 5 3 11z" />
<glyph unicode="K" horiz-adv-x="1249" d="M154 18v1356q0 20 18 21h125q20 0 20 -21v-651l639 651q18 20 41 21h156q14 0 17.5 -10.5t-7.5 -20.5l-581 -582l616 -749q9 -9 9 -18q0 -15 -19 -15h-148q-25 0 -36 18l-537 646l-150 -150v-496q0 -18 -20 -18h-125q-18 0 -18 18z" />
<glyph unicode="L" horiz-adv-x="1091" d="M154 18v1356q0 20 18 21h125q20 0 20 -21v-1229h711q18 0 19 -20v-107q0 -18 -19 -18h-856q-18 0 -18 18z" />
<glyph unicode="M" horiz-adv-x="1703" d="M154 18v1356q0 20 18 21h129q23 0 35 -21l514 -852l516 852q14 20 37 21h129q18 0 18 -21v-1356q0 -18 -18 -18h-121q-18 0 -18 18v1092l-461 -756q-12 -20 -33 -20h-90q-20 0 -33 20l-465 756v-1092q0 -18 -18 -18h-121q-18 0 -18 18z" />
<glyph unicode="N" horiz-adv-x="1515" d="M154 18v1356q0 20 18 21h113q20 0 39 -21l880 -1110v1110q0 20 21 21h116q20 0 21 -21v-1356q0 -18 -21 -18h-114q-23 0 -37 20l-881 1106v-1108q0 -18 -18 -18h-119q-18 0 -18 18z" />
<glyph unicode="O" horiz-adv-x="1650" d="M96 694q0 303 214 511t515 208t515 -209t214 -510t-214 -507.5t-515 -206.5t-515 206.5t-214 507.5zM268 694.5q0 -233.5 162 -398.5t395.5 -165t394 165t160.5 398.5t-160.5 399.5t-394 166t-395.5 -166t-162 -399.5z" />
<glyph unicode="P" horiz-adv-x="1282" d="M154 18v1356q0 20 18 21h549q197 0 321 -99q164 -127 164 -360q0 -242 -178 -371q-119 -88 -328 -88h-383v-459q0 -18 -20 -18h-125q-18 0 -18 18zM317 621h357q158 0 239 55q127 86 127 260q0 170 -118 252q-86 63 -226 63h-379v-630z" />
<glyph unicode="Q" horiz-adv-x="1650" d="M96 694q0 303 214 511t515 208t515 -209t214 -510q0 -268 -174 -465.5t-434 -232.5q0 -14 19 -23q125 -43 324.5 -99t301.5 -73q20 -3 20 -14q0 -5 -3 -12l-56 -105q-12 -16 -32 -16q-25 0 -79.5 13.5t-141.5 42t-163.5 55t-202.5 70.5t-204 71q-23 10 -22 35v51 q-260 35 -435.5 233.5t-175.5 468.5zM268 694.5q0 -233.5 162 -398.5t395.5 -165t394 165t160.5 398.5t-160.5 399.5t-394 166t-395.5 -166t-162 -399.5z" />
<glyph unicode="R" horiz-adv-x="1308" d="M154 18v1356q0 20 18 21h553q221 0 340 -80q164 -111 164 -346q0 -219 -162 -334q-88 -66 -215 -82l389 -520q8 -13 8 -21q0 -12 -18 -12h-139q-27 0 -39 20l-385 525h-351v-527q0 -18 -20 -18h-125q-18 0 -18 18zM317 682h375q168 0 250 47q121 70 121 238t-117 239 q-82 49 -239 49h-390v-573z" />
<glyph unicode="S" horiz-adv-x="1138" d="M84 141l51 105q6 16 27 6q207 -133 399 -133q143 0 230 63q92 72 92 197q0 137 -178 213q-51 23 -187.5 63.5t-216.5 79.5q-209 102 -209 303q0 170 121 269q133 106 375 106q231 0 405 -98q16 -12 8 -29l-49 -102q-10 -20 -28 -8q-166 96 -344 96q-170 0 -250 -74 q-66 -59 -66 -154q0 -131 203 -204q23 -8 179.5 -54.5t232.5 -91.5q182 -104 182 -300.5t-148 -311.5q-131 -102 -350 -102q-262 0 -469 133q-14 7 -13 17q0 5 3 11z" />
<glyph unicode="T" horiz-adv-x="1155" d="M8 1270v104q0 20 19 21h1101q18 0 19 -21v-104q0 -20 -19 -21h-469v-1231q0 -18 -20 -18h-123q-20 0 -20 18v1231h-469q-19 1 -19 21z" />
<glyph unicode="U" horiz-adv-x="1478" d="M150 551v823q0 20 20 21h123q20 0 20 -21v-805q0 -201 105 -317q111 -125 319 -125q211 0 322 125q106 117 106 317v805q0 20 19 21h125q20 0 20 -21v-823q0 -246 -135 -397q-158 -174 -455 -174t-454 174q-135 151 -135 397z" />
<glyph unicode="V" horiz-adv-x="1290" d="M8 1366q-5 10 -5 16q0 13 20 13h131q25 0 30 -23l457 -1173h4l459 1173q10 23 31 23h133q17 0 17 -15q0 -6 -3 -14l-543 -1350q-10 -23 -32 -22h-132q-23 0 -30 22z" />
<glyph unicode="W" horiz-adv-x="2195" d="M150 508v866q0 20 20 21h123q20 0 20 -21v-866q0 -178 86 -275q94 -102 269 -102q137 0 225 82q123 113 123 328v833q0 20 20 21h125q18 0 19 -21v-833q0 -213 125 -328q86 -82 225 -82q174 0 266 102q86 96 86 275v866q0 20 21 21h125q18 0 18 -21v-866 q0 -246 -125 -381q-135 -147 -387 -147q-145 0 -258 69q-121 76 -178 225q-53 -145 -176 -225q-113 -70 -258 -69q-252 0 -388 147q-126 137 -126 381z" />
<glyph unicode="X" horiz-adv-x="1327" d="M1 10q-2 3 -2 7q0 7 7 14l557 663l-549 670q-10 10 -6 20.5t19 10.5h163q18 0 33 -21l443 -547l436 547q14 20 33 21h165q14 0 18.5 -10.5t-3.5 -20.5l-547 -666l553 -667q7 -11 7 -18q0 -13 -21 -13h-164q-20 0 -33 16l-444 555l-449 -555q-12 -16 -33 -16h-164 q-14 0 -19 10z" />
<glyph unicode="Y" horiz-adv-x="1249" d="M23 1395h141q20 0 33 -21l426 -600l428 600q10 20 30 21h144q14 0 18 -11l2 -6q0 -7 -6 -14l-534 -752v-594q0 -18 -21 -18h-123q-20 0 -20 18v594l-533 752q-6 7 -6 15q1 16 21 16z" />
<glyph unicode="Z" horiz-adv-x="1169" d="M23 16q0 10 4 15l833 1218h-811q-18 0 -18 21v104q0 20 18 21h1059q20 0 20 -19q0 -8 -4 -14l-833 -1217h837q18 0 19 -20v-107q0 -18 -19 -18h-1085q-20 0 -20 16z" />
<glyph unicode="[" horiz-adv-x="669" d="M147 -293v1886q0 20 21 21h422q20 0 20 -21v-98q0 -18 -20 -18h-281v-1651h281q20 0 20 -21v-98q0 -18 -20 -18h-422q-21 0 -21 18z" />
<glyph unicode="\" horiz-adv-x="565" d="M31 1368q-8 27 16 27h107q25 0 32 -27l377 -1341q8 -27 -18 -27h-107q-25 0 -30 25z" />
<glyph unicode="]" horiz-adv-x="669" d="M61 -195q0 20 19 21h280v1651h-280q-18 0 -19 18v98q0 20 19 21h422q20 0 20 -21v-1886q0 -18 -20 -18h-422q-18 0 -19 18v98z" />
<glyph unicode="^" horiz-adv-x="1062" d="M77 843q-3 9 3 17l383 596q12 18 31 19h73q18 0 31 -19l383 -596q4 -6 4 -12t-4 -10t-14 -4h-107q-16 0 -33 18l-297 469l-297 -469q-12 -18 -30 -18h-111q-12 0 -15 9z" />
<glyph unicode="_" horiz-adv-x="991" d="M-20 -186q0 20 20 20h991q20 0 21 -20v-78q0 -20 -21 -21h-991q-20 0 -20 21v78z" />
<glyph unicode="`" horiz-adv-x="854" d="M258 1532q-18 33 14 33h103q14 0 26 -21l185 -342q2 -4 4 -10t2 -11t-4 -9.5t-13 -4.5h-75q-18 0 -29 19z" />
<glyph unicode="a" horiz-adv-x="972" d="M86 252q0 168 190 242q137 51 414 65v31q0 115 -47 170q-53 61 -168 61q-135 0 -280 -84q-20 -12 -29 6l-35 76q-8 16 10 27q143 96 353 96q182 0 270 -100q76 -86 76 -250v-574q0 -18 -19 -18h-96q-18 0 -18 18v33h-9q-123 -72 -278 -71q-137 0 -230 65 q-104 76 -104 207zM229 260q0 -80 69 -121t165 -41q113 0 227 60v288q-205 -8 -305 -36q-156 -39 -156 -150z" />
<glyph unicode="b" horiz-adv-x="1083" d="M147 27v1347q0 20 21 21h111q18 0 18 -21v-489q121 57 256 57q199 0 321 -131q119 -133 119 -350q0 -190 -108 -316q-145 -166 -436 -165q-203 0 -281 22q-21 5 -21 25zM297 115q68 -12 164 -13q203 0 305 125q74 90 74 234q0 168 -92 264q-88 90 -224 90 q-123 0 -227 -57v-643z" />
<glyph unicode="c" horiz-adv-x="964" d="M92 461q0 180 105 305q145 176 395 176q164 0 282 -82q18 -14 11 -26l-43 -78q-10 -18 -31 -6q-100 63 -219 63q-168 0 -266 -117q-82 -94 -82 -235q0 -158 94 -258q92 -98 256 -99q127 0 223 58q23 16 31 -4l41 -76q3 -4 2 -8q0 -9 -12 -19q-113 -76 -289 -75 q-238 0 -371 139q-127 127 -127 342z" />
<glyph unicode="d" horiz-adv-x="1067" d="M92 459q0 180 92 309q131 176 375 176q100 0 211 -37v467q0 20 18 21h111q20 0 21 -21v-1356q0 -18 -21 -18h-276q-268 0 -410 141q-121 117 -121 318zM244 461q0 -141 84 -230q104 -106 309 -106h133v653q-102 37 -203 37q-166 0 -260 -133q-63 -92 -63 -221z" />
<glyph unicode="e" horiz-adv-x="1073" d="M92 473q0 201 123 334q125 135 338 135q215 0 336 -147q98 -123 97 -310q0 -21 -1 -43q0 -23 -24 -22h-713q10 -123 80 -205q94 -113 262 -113q141 0 278 82q23 14 31 -4l39 -76q8 -14 -8 -26q-145 -98 -352 -98q-233 0 -365 149q-121 133 -121 344zM248 528h594 q-6 125 -76 205q-82 88 -213 88q-147 0 -231 -96q-68 -80 -74 -197z" />
<glyph unicode="f" horiz-adv-x="694" d="M55 825v80q0 20 21 21h119v145q0 184 81 268q72 72 201 72q164 0 275 -86q11 -7 11 -16q0 -5 -3 -11l-37 -75q-10 -20 -33 -6q-86 68 -182 67q-82 0 -121 -49q-43 -51 -43 -178v-131h277q18 0 18 -21v-80q0 -18 -18 -18h-277v-789q0 -18 -20 -18h-111q-18 0 -18 18v789 h-119q-21 0 -21 18z" />
<glyph unicode="g" horiz-adv-x="1085" d="M92 463q0 217 117 352q113 127 301 127q156 0 276 -96h7v59q0 20 18 21h107q20 0 20 -21v-934q0 -225 -117 -340q-106 -106 -319 -106q-193 0 -338 98q-16 10 -8 25l41 82q10 18 30 4q131 -88 276.5 -88t215.5 80q70 78 69 229v119q-111 -92 -276 -92q-186 0 -299 127 q-121 137 -121 354zM244 465q0 -170 78 -266q76 -92 204 -93q147 0 262 99v508q-131 106 -260 106q-131 0 -204 -94q-80 -98 -80 -260z" />
<glyph unicode="h" horiz-adv-x="1134" d="M147 18v1356q0 20 21 21h113q18 0 18 -21v-606q92 174 324 174q172 0 268 -84q111 -98 110 -309v-531q0 -18 -20 -18h-109q-20 0 -20 18v498q0 166 -76 236q-63 59 -182 59q-164 0 -242 -141q-53 -100 -53 -244v-408q0 -18 -18 -18h-113q-21 0 -21 18z" />
<glyph unicode="i" horiz-adv-x="446" d="M131 1366q0 37 26.5 62.5t63.5 25.5t63.5 -25.5t26.5 -62.5q0 -39 -26.5 -64.5t-63.5 -25.5t-63.5 25.5t-26.5 64.5zM147 18v887q0 20 21 21h111q18 0 18 -21v-887q0 -18 -18 -18h-111q-21 0 -21 18z" />
<glyph unicode="j" horiz-adv-x="444" d="M4 -397q-9 9 -9 16q0 8 11 14q82 51 111.5 135.5t29.5 227.5v909q0 18 21 19h111q18 0 18 -19v-831q0 -219 -37 -350.5t-149 -196.5q-8 -3 -15 -3q-14 0 -24 11zM131 1366q0 37 25.5 62.5t64.5 25.5q37 0 62.5 -25.5t25.5 -62.5q0 -39 -25.5 -64.5t-62.5 -25.5 q-39 0 -64.5 25.5t-25.5 64.5z" />
<glyph unicode="k" horiz-adv-x="993" d="M147 18v1356q0 20 21 21h111q18 0 18 -21v-901l451 434q18 18 38 19h127q18 0 21.5 -12.5t-8.5 -22.5l-396 -367l416 -493q9 -12 9 -19q0 -12 -23 -12h-127q-25 0 -35 18l-342 410l-131 -119v-291q0 -18 -18 -18h-111q-21 0 -21 18z" />
<glyph unicode="l" horiz-adv-x="444" d="M147 18v1356q0 20 21 21h111q18 0 18 -21v-1356q0 -18 -18 -18h-111q-21 0 -21 18z" />
<glyph unicode="m" horiz-adv-x="1673" d="M147 18v887q0 20 21 21h104q20 0 21 -21v-90h6q94 127 270 127q127 0 209 -61q68 -49 99 -131q41 90 122 143q78 49 191 49q162 0 252 -90q98 -94 98 -283v-551q0 -18 -18 -18h-113q-20 0 -20 18v514q0 147 -62 216q-57 63 -168 63q-125 0 -186 -98q-53 -90 -53 -254 v-441q0 -18 -19 -18h-113q-20 0 -20 18v514q0 147 -61 216q-57 63 -168 63q-125 0 -187 -98q-53 -90 -53 -234v-461q0 -18 -18 -18h-113q-21 0 -21 18z" />
<glyph unicode="n" horiz-adv-x="1134" d="M147 18v887q0 20 21 21h104q20 0 21 -21v-137h6q92 174 324 174q172 0 268 -84q111 -98 110 -309v-531q0 -18 -20 -18h-109q-20 0 -20 18v498q0 166 -76 236q-63 59 -182 59q-164 0 -242 -141q-53 -100 -53 -244v-408q0 -18 -18 -18h-113q-21 0 -21 18z" />
<glyph unicode="o" horiz-adv-x="1161" d="M92 461q0 209 137 342q139 139 352.5 139t352.5 -139q137 -133 137 -342t-137 -342q-139 -139 -352 -139t-353 139q-137 133 -137 342zM240 460.5q0 -151.5 92 -249.5q96 -109 249.5 -109t249.5 109q92 98 92.5 249.5t-92.5 250.5q-96 109 -249.5 108.5t-249.5 -108.5 q-92 -99 -92 -250.5z" />
<glyph unicode="p" horiz-adv-x="1073" d="M147 -455v1346q0 20 23 27q127 25 274 24q252 0 398 -133q141 -131 141 -346t-117 -338q-131 -145 -352 -145q-127 0 -217 40v-475q0 -18 -18 -18h-111q-21 0 -21 18zM297 145q86 -43 203 -43q147 0 241 95q92 88 93 266q0 164 -99 258q-104 100 -276 100q-63 0 -162 -12 v-664z" />
<glyph unicode="q" horiz-adv-x="1071" d="M92 459q0 193 109 321q143 162 426 162q147 0 270 -31q27 -8 27 -30v-1336q0 -18 -21 -18h-110q-18 0 -19 18v568q-92 -133 -270 -133q-176 0 -287 114q-125 129 -125 365zM240 463q0 -176 84 -273q76 -88 202 -88q248 0 248 340v365q-104 14 -158 14q-207 0 -307 -129 q-69 -88 -69 -229z" />
<glyph unicode="r" horiz-adv-x="772" d="M147 18v887q0 20 21 21h104q20 0 21 -21v-112h6q72 150 260 149q129 0 221 -74q9 -8 9 -16q0 -5 -3 -10l-45 -92q-10 -18 -30 -5q-84 59 -176 60q-104 0 -166 -82q-70 -94 -70 -270v-435q0 -18 -18 -18h-113q-21 0 -21 18z" />
<glyph unicode="s" horiz-adv-x="839" d="M84 82l41 84q10 18 27 8q119 -74 254 -74q193 0 192 140q0 53 -33 84.5t-98 60.5q-25 12 -103.5 40t-119.5 46q-152 70 -152 223q0 117 88 183.5t250 66.5q168 0 287 -67q16 -10 10 -27l-41 -84q-8 -18 -27 -6q-106 59 -223 59q-188 0 -188 -125q0 -47 28.5 -73.5 t83.5 -51.5q31 -14 111 -41.5t113 -44.5q170 -80 170 -231q0 -125 -92.5 -198.5t-249.5 -73.5q-190 0 -320 77q-12 5 -12 14q0 5 4 11z" />
<glyph unicode="t" horiz-adv-x="722" d="M41 825v80q0 20 20 21h109v178q0 20 20 20h111q20 0 21 -20v-178h321q20 0 21 -21v-80q0 -18 -21 -18h-321v-481q0 -102 30 -150q41 -68 146 -67q88 0 168 57q20 14 30 -2l37 -80q3 -5 3 -9q0 -9 -11 -18q-109 -78 -264 -77q-154 0 -228 90q-63 80 -63 237v500h-109 q-20 0 -20 18z" />
<glyph unicode="u" horiz-adv-x="1116" d="M133 391v514q0 20 19 21h110q20 0 21 -21v-499q0 -113 36 -181q68 -113 240 -112q178 0 238 110q37 63 37 183v499q0 20 20 21h111q18 0 18 -21v-514q0 -162 -68 -262q-102 -150 -356 -149q-256 0 -358 149q-68 100 -68 262z" />
<glyph unicode="v" horiz-adv-x="921" d="M8 897q-5 10 -5 16q0 13 20 13h118q25 0 31 -23l289 -760h4l287 760q10 23 30 23h117q19 0 19 -13q0 -6 -5 -16l-360 -881q-10 -23 -33 -22h-129q-23 0 -31 22z" />
<glyph unicode="w" horiz-adv-x="1628" d="M133 391v514q0 20 19 21h110q20 0 21 -21v-506q0 -115 34 -184q51 -100 191 -100q147 0 199 110q33 66 32 178v502q0 20 21 21h110q18 0 19 -21v-502q0 -106 33 -178q51 -111 200 -110q137 0 189 98q37 68 37 186v506q0 20 20 21h109q18 0 18 -21v-514q0 -166 -55 -262 q-82 -150 -307 -149q-180 0 -263 108q-41 49 -55 86q-16 -37 -57 -86q-82 -109 -260 -108q-227 0 -310 149q-55 98 -55 262z" />
<glyph unicode="x" horiz-adv-x="974" d="M9 10q-2 3 -1 7q0 7 6 14l381 440l-362 422q-10 12 -6 22.5t18 10.5h139q18 0 33 -21l270 -330l273 330q14 20 33 21h133q16 0 19 -10.5t-7 -22.5l-363 -412l386 -450q9 -12 8 -19q0 -12 -23 -12h-135q-16 0 -33 16l-291 353l-292 -353q-12 -16 -33 -16h-133 q-15 0 -20 10z" />
<glyph unicode="y" horiz-adv-x="976" d="M10 899q-3 7 -3 13q0 14 20 14h133q25 0 30 -23l318 -772l287 772q6 23 30 23h123q17 0 18 -14q0 -6 -3 -13l-369 -948q-80 -201 -178 -305q-125 -121 -309 -122q-12 0 -23 1q-16 0 -16 16v113q0 14 18 14q4 0 16.5 -1t22.5 -1q111 0 194 94q63 74 111 185z" />
<glyph unicode="z" horiz-adv-x="825" d="M23 31l550 764h-524q-18 0 -18 20v90q0 20 18 21h735q14 0 19.5 -10.5t-2.5 -22.5l-551 -762h538q18 0 19 -20v-93q0 -18 -19 -18h-753q-20 0 -20 12q0 7 8 19z" />
<glyph unicode="{" horiz-adv-x="653" d="M66 598v102q0 18 18 19h10q88 0 131 65q53 74 54 238l-7 289q0 141 58 213q72 86 239 86q20 0 21 -19v-84q0 -18 -19 -18q-84 0 -125 -53q-31 -45 -30 -148l4 -280q0 -174 -64 -260q-47 -68 -139 -99q86 -29 139 -98q63 -90 64 -260l-4 -281q0 -102 30 -147 q41 -55 125 -56q18 0 19 -18v-82q0 -20 -21 -20q-166 0 -239 86q-57 72 -58 215l7 286q0 166 -54 240q-45 63 -131 64h-10q-18 0 -18 20z" />
<glyph unicode="|" horiz-adv-x="458" d="M154 -428v1802q0 20 18 21h113q20 0 20 -21v-1802q0 -18 -20 -18h-113q-18 0 -18 18z" />
<glyph unicode="}" horiz-adv-x="653" d="M63 -211q0 18 19 18q86 0 125 56q31 45 31 147l-5 281q0 170 64 260q53 70 139 98q-92 31 -139 99q-63 86 -64 260l5 280q0 102 -31 148q-41 53 -125 53q-18 0 -19 18v84q0 18 21 19q168 0 240 -86q57 -72 57 -213l-6 -289q0 -164 53 -238q43 -66 131 -65h10q18 0 19 -19 v-102q0 -20 -19 -20h-10q-86 0 -131 -64q-53 -74 -53 -240l6 -286q0 -143 -57 -215q-74 -86 -240 -86q-20 0 -21 20v82z" />
<glyph unicode="~" horiz-adv-x="1230" d="M104 487q0 139 81 213t202 74q74 0 139.5 -28.5t105.5 -62.5t95 -62.5t109 -28.5q66 0 108.5 33.5t42.5 107.5q0 20 21 21h98q20 0 20 -21q0 -139 -79.5 -211.5t-202.5 -72.5q-72 0 -136.5 28.5t-105.5 62t-96 62.5t-111 29q-66 0 -108.5 -35t-42.5 -109q0 -18 -23 -18 h-96q-21 0 -21 18z" />
<glyph unicode="&#xa0;" />
<glyph unicode="&#xa1;" horiz-adv-x="503" d="M160 848q0 41 26.5 67.5t67.5 26.5t67.5 -26.5t26.5 -67.5t-26.5 -67.5t-67.5 -26.5t-67.5 26.5t-26.5 67.5zM162 -451l39 963q0 20 18 20h68q18 0 18 -20l41 -963q0 -20 -18 -20h-150q-20 0 -16 20z" />
<glyph unicode="&#xa2;" d="M213 461q0 182 106 305q125 156 345 172v141q0 20 20 21h45q20 0 21 -21v-139q137 -8 247 -80q16 -12 11 -26l-43 -78q-10 -20 -31 -6q-100 63 -219 63q-168 0 -266 -117q-82 -92 -82 -235q0 -160 92 -258q94 -98 256 -99q129 0 225 58q20 14 29 -4l43 -76q6 -14 -11 -27 q-94 -63 -251 -73v-138q0 -18 -21 -18h-45q-20 0 -20 18v138q-205 12 -324 137q-127 131 -127 342z" />
<glyph unicode="&#xa3;" d="M143 18v103q0 20 21 20h133q119 111 119 277q0 61 -31 162h-164q-20 0 -20 18v92q0 20 20 21h115q-66 162 -66 278q0 195 125 309q121 115 326 115q190 0 323 -82q18 -10 11 -26l-43 -86q-8 -18 -25 -9q-119 68 -254 68q-143 0 -225 -82q-82 -78 -82 -213q0 -96 66 -272 h438q20 0 20 -21v-92q0 -18 -20 -18h-391q27 -94 26 -156q0 -162 -108 -283h575q20 0 21 -20v-103q0 -18 -21 -18h-868q-21 0 -21 18z" />
<glyph unicode="&#xa4;" horiz-adv-x="1415" d="M104 1300q-12 16 0 29l68 68q12 16 29 0l186 -187q141 115 322 115q182 0 319 -115l186 189q16 12 29 0l68 -68q10 -14 0 -28l-187 -187q115 -137 115 -321q0 -180 -113 -324l185 -186q14 -14 0 -29l-66 -68q-14 -10 -28 0l-189 189q-135 -113 -319 -113q-180 0 -324 113 l-184 -187q-14 -10 -29 0l-66 68q-14 14 0 29l185 186q-113 139 -113 322q0 184 115 321zM305 795q-2 -168 117 -288t287 -118q166 -2 284.5 118t118.5 288q0 166 -117.5 283.5t-285.5 117.5t-287 -117.5t-117 -283.5z" />
<glyph unicode="&#xa5;" d="M25 1378q0 6 5 11.5t13 5.5h143q23 0 35 -23l389 -598l394 598q12 23 32 23h146q31 0 16 -29l-446 -653h323q18 0 19 -19v-71q0 -20 -19 -21h-383v-176h383q18 0 19 -20v-72q0 -20 -19 -21h-383v-295q0 -18 -18 -18h-125q-20 0 -21 18v295h-381q-18 0 -18 21v72 q0 20 18 20h381v176h-381q-18 0 -18 21v71q0 18 18 19h324l-442 653q-4 6 -4 12z" />
<glyph unicode="&#xa6;" horiz-adv-x="458" d="M154 334q0 20 18 20h113q20 0 20 -20v-762q0 -18 -20 -18h-113q-18 0 -18 18v762zM154 612v762q0 20 18 21h113q20 0 20 -21v-762q0 -18 -20 -18h-113q-18 0 -18 18z" />
<glyph unicode="&#xa7;" horiz-adv-x="964" d="M100 549q0 178 154 301q-96 96 -96 227q0 145 88 238q98 100 266 100q176 0 322 -100q16 -10 10 -27l-39 -82q-8 -18 -29 -6q-125 94 -256 94q-102 0 -155 -59q-49 -47 -50 -139q0 -23 5.5 -44.5t10.5 -39t19.5 -37t23.5 -32.5t30.5 -31.5t31.5 -28t39 -28.5t39 -25.5 t43 -27t41 -26.5q127 -80 196.5 -165t69.5 -214q0 -176 -153 -305q96 -96 96 -225q0 -147 -92 -240q-96 -98 -260 -98q-176 0 -322 100q-16 12 -10 27l39 82q10 18 26 6q125 -94 261 -94q92 0 145 51q57 53 57 147q0 51 -18.5 93.5t-58 79t-73.5 60t-96.5 62.5t-93.5 60 q-98 70 -154.5 150.5t-56.5 195.5zM256 567q0 -141 145 -245q33 -25 105 -68t102 -66q100 76 101 189q0 145 -162 256q-25 18 -91.5 59t-99.5 66q-100 -85 -100 -191z" />
<glyph unicode="&#xa8;" horiz-adv-x="854" d="M143 1366q0 37 27 63.5t63 26.5q39 0 65 -26.5t26 -63.5t-26 -63.5t-65 -26.5q-37 0 -63.5 26.5t-26.5 63.5zM528 1366q0 37 27 63.5t63.5 26.5t63.5 -26.5t27 -63.5t-27 -63.5t-63.5 -26.5t-63.5 26.5t-27 63.5z" />
<glyph unicode="&#xa9;" horiz-adv-x="1705" d="M96 733.5q0 313.5 220.5 534.5t535.5 221q313 0 533.5 -221t220.5 -534.5t-220.5 -532.5t-533.5 -219q-315 0 -535.5 219t-220.5 532.5zM186 733.5q0 -276.5 193.5 -472t472.5 -195.5q276 0 470 195.5t194 472t-194 473t-470.5 196.5t-471 -196.5t-194.5 -473zM489 727 q0 162 115 269.5t273 107.5q111 0 192 -41q18 -10 27.5 -17.5t7.5 -15.5q0 -6 -15.5 -32.5t-19.5 -26.5q-8 -2 -45 14q-66 33 -150 33q-119 0 -203.5 -83t-84.5 -208q0 -131 83 -211t208 -80q86 0 153 29q35 14 43 10q2 0 17.5 -28.5t15.5 -32.5q2 -8 -4 -14.5t-25 -12.5 q-92 -37 -200 -37q-168 0 -278 102.5t-110 274.5z" />
<glyph unicode="&#xaa;" horiz-adv-x="579" d="M70 1004q0 96 98 141q68 35 248 45v14q0 84 -41 117q-29 23 -82 22q-78 0 -162 -49q-16 -8 -22 4l-17 35q-6 14 12 25q90 57 201 57q84 0 135 -39q68 -51 68 -184v-338q0 -18 -19 -18h-45q-18 0 -18 18v29h-6q-29 -20 -72 -35q-43 -12 -88 -12q-76 0 -135 43 q-55 45 -55 125zM135 549v31q0 20 19 20h268q20 0 20 -20v-31q0 -18 -20 -19h-268q-19 1 -19 19zM160 1006q0 -45 35.5 -70t93.5 -25q68 0 127 33v180q-121 -10 -168 -24q-88 -24 -88 -94z" />
<glyph unicode="&#xab;" horiz-adv-x="1181" d="M63 465q0 12 15 31l391 424q18 18 39 18h110q18 0 21.5 -10t-6.5 -25l-397 -438l397 -436q10 -16 7 -26.5t-22 -10.5h-110q-20 0 -39 20l-391 424q-15 15 -15 29zM543 465q0 14 16 31l391 424q16 18 39 18h111q16 0 20 -10t-8 -25l-397 -438l397 -436q12 -16 8 -26.5 t-20 -10.5h-111q-23 0 -39 20l-391 424q-16 13 -16 29z" />
<glyph unicode="&#xac;" horiz-adv-x="1142" d="M72 664v110q0 18 18 19h961q20 0 20 -19v-375q0 -20 -20 -20h-103q-20 0 -20 20v246h-838q-18 1 -18 19z" />
<glyph unicode="&#xad;" horiz-adv-x="1021" d="M182 543v102q0 18 19 19h620q18 0 19 -19v-102q0 -20 -19 -21h-620q-19 1 -19 21z" />
<glyph unicode="&#xae;" horiz-adv-x="950" d="M98 1095.5q0 155.5 110.5 266.5t266.5 111q158 0 268.5 -111t110.5 -266.5t-110.5 -265t-266.5 -109.5q-158 0 -268.5 109.5t-110.5 265zM150 1096q0 -135 95 -230.5t232 -95.5q135 0 230.5 96.5t95.5 229.5q0 137 -95.5 232t-232.5 95q-135 0 -230 -95t-95 -232z M326 930v338q0 16 16 16h147q139 0 140 -113q0 -86 -99 -104l103 -133q14 -20 -10 -21h-25q-12 0 -23 13l-102 135h-94v-133q0 -14 -17 -15h-22q-14 1 -14 17zM379 1106h102q94 0 94 68q0 63 -92 63h-104v-131z" />
<glyph unicode="&#xaf;" horiz-adv-x="1304" d="M164 1303v86q0 18 20 18h484q20 0 20 -18v-86q0 -18 -20 -19h-484q-20 1 -20 19z" />
<glyph unicode="&#xb0;" horiz-adv-x="757" d="M102 1214.5q0 114.5 81 195.5t196 81t195.5 -81t80.5 -195.5t-80.5 -194.5t-195.5 -80t-196 80t-81 194.5zM174 1214.5q0 -88.5 58.5 -147.5t146.5 -59q86 0 146.5 59t60.5 147.5t-60.5 147.5t-146.5 59q-88 0 -146.5 -59t-58.5 -147.5z" />
<glyph unicode="&#xb1;" horiz-adv-x="1146" d="M80 18v103q0 20 18 20h951q18 0 18 -20v-103q0 -18 -18 -18h-951q-18 0 -18 18zM80 752v102q0 18 18 18h404v404q0 20 20 20h103q18 0 18 -20v-404h406q18 0 18 -18v-102q0 -20 -18 -21h-406v-403q0 -20 -18 -21h-103q-20 0 -20 21v403h-404q-18 1 -18 21z" />
<glyph unicode="&#xb2;" horiz-adv-x="854" d="M188 700v27q0 127 74 203q41 41 129 88t121 76q49 43 49 106q0 66 -45 100.5t-104 34.5q-80 0 -164 -55q-16 -10 -25 6l-18 37q-8 16 10 29q100 63 200.5 63t168.5 -61q66 -61 65 -152q0 -94 -71 -160q-41 -37 -126 -83t-118 -76q-49 -49 -49 -119h350q18 0 18 -21v-43 q0 -18 -18 -18h-428q-19 0 -19 18z" />
<glyph unicode="&#xb3;" horiz-adv-x="854" d="M207 743l16 39q8 16 27 4q70 -39 145 -38q78 0 122 36.5t44 100.5q0 90 -88 121q-35 12 -86 12h-20q-18 0 -19 18v35q0 20 19 21h14q53 0 90 14q68 29 68 108q0 51 -37 86t-99 35q-70 0 -139 -41q-16 -10 -26 6l-17 35q-10 20 8 31q98 49 181 49q96 0 154.5 -55 t58.5 -137q0 -117 -109 -162q133 -47 133 -182q0 -92 -66.5 -149.5t-179.5 -57.5q-102 0 -186 45q-18 10 -8 26z" />
<glyph unicode="&#xb4;" horiz-adv-x="854" d="M266 1202l185 342q12 20 26 21h103q14 0 18 -11.5t-4 -21.5l-213 -346q-10 -18 -29 -19h-76q-26 0 -10 35z" />
<glyph unicode="&#xb5;" horiz-adv-x="1116" d="M133 -332v1237q0 20 19 21h110q20 0 21 -21v-510q0 -113 36 -180q68 -113 240 -113q176 0 236 113q39 68 39 180v510q0 20 20 21h111q18 0 18 -21v-514q0 -162 -68 -262q-102 -150 -356 -149q-106 0 -180 34q-66 31 -96 92v-438q0 -18 -21 -18h-110q-19 0 -19 18z" />
<glyph unicode="&#xb6;" horiz-adv-x="1269" d="M78 1053q0 199 123 306t348 107h647q20 0 21 -18v-88q0 -20 -21 -21h-205v-1728q0 -20 -18 -21h-99q-18 0 -18 21v1728h-240v-1728q0 -20 -20 -21h-96q-20 0 -21 21v1026q-188 10 -294.5 121t-106.5 295z" />
<glyph unicode="&#xb7;" horiz-adv-x="393" d="M100 707q0 41 29 68.5t70 27.5t69.5 -27.5t28.5 -68.5t-28.5 -70t-69.5 -29t-70 29t-29 70z" />
<glyph unicode="&#xb8;" horiz-adv-x="882" d="M170 -336q0 16 16 17q6 0 29 -2.5t45 -2.5q63 0 109.5 25t46.5 78q0 43 -37 64.5t-92 21.5q-23 0 -43 -2l14 155h80v-90q80 -6 131 -46t51 -107q0 -96 -77.5 -138.5t-178.5 -42.5q-43 0 -78 7q-16 4 -16 18v45z" />
<glyph unicode="&#xb9;" horiz-adv-x="854" d="M213 1274v33q0 20 20 28l189 72q16 8 27 8h20q18 0 18 -20v-631h144q20 0 20 -21v-43q0 -18 -20 -18h-393q-20 0 -21 18v43q0 20 21 21h157v547l-153 -56q-29 -12 -29 19z" />
<glyph unicode="&#xba;" horiz-adv-x="788" d="M100 1126.5q0 112.5 72 194.5q88 94 221 94q135 0 223 -94q72 -82 72 -194.5t-72 -194.5q-88 -94 -223 -94q-133 0 -221 94q-72 82 -72 194.5zM195 1126q0 -82 49 -141q53 -68 149 -67q100 0 152 67q49 59 49 141t-49 142q-53 68 -152 67q-96 0 -149 -67 q-49 -60 -49 -142zM240 549v31q0 20 18 20h268q20 0 21 -20v-31q0 -18 -21 -19h-268q-18 1 -18 19z" />
<glyph unicode="&#xbb;" horiz-adv-x="1181" d="M60 928q3 10 22 10h111q23 0 38 -18l392 -424q16 -20 16 -31q0 -12 -16 -29l-392 -424q-14 -20 -38 -20h-111q-41 0 -12 37l397 436l-397 438q-13 15 -10 25zM542 2q-3 10 7 27l397 436l-397 438q-10 14 -7 24.5t21 10.5h109q23 0 41 -18l391 -424q14 -18 14 -31 q0 -14 -14 -29l-391 -424q-18 -20 -41 -20h-109q-18 0 -21 10z" />
<glyph unicode="&#xbc;" horiz-adv-x="854" d="M80 463v43q0 20 20 20h652q18 0 18 -20v-43q0 -18 -18 -19h-652q-20 1 -20 19zM125 -221q0 16 14 37l320 450q14 23 41 23h35q18 0 18 -21v-454h98q20 0 21 -21v-39q0 -18 -21 -18h-98v-154q0 -18 -18 -18h-52q-20 0 -20 18v154h-318q-20 0 -20 18v25zM203 1274v33 q0 20 20 28l189 72q16 8 26 8h21q20 0 20 -20v-631h144q18 0 18 -21v-43q0 -18 -18 -18h-396q-20 0 -20 18v43q0 20 20 21h158v547l-154 -56q-28 -12 -28 19zM236 -186h227v325z" />
<glyph unicode="&#xbd;" horiz-adv-x="854" d="M80 463v43q0 20 20 20h652q18 0 18 -20v-43q0 -18 -18 -19h-652q-20 1 -20 19zM186 -385q0 129 74 203q41 41 129 88t121 76q49 43 49 106q0 66 -47 100q-41 35 -104 35q-80 0 -162 -55q-18 -10 -27 6l-16 37q-10 16 8 29q104 63 203 63q100 0 166 -61q66 -59 65 -152 q0 -96 -70 -160l-243 -159q-49 -49 -49 -119h350q18 0 18 -21v-43q0 -18 -18 -18h-428q-18 0 -19 18v27zM203 1274v33q0 20 20 28l189 72q16 8 26 8h21q20 0 20 -20v-631h144q18 0 18 -21v-43q0 -18 -18 -18h-396q-20 0 -20 18v43q0 20 20 21h158v547l-154 -56 q-28 -12 -28 19z" />
<glyph unicode="&#xbe;" horiz-adv-x="854" d="M80 463v43q0 20 20 20h652q18 0 18 -20v-43q0 -18 -18 -19h-652q-20 1 -20 19zM125 -221q0 16 14 37l320 450q14 23 41 23h35q18 0 18 -21v-454h98q20 0 21 -21v-39q0 -18 -21 -18h-98v-154q0 -18 -18 -18h-52q-20 0 -20 18v154h-318q-20 0 -20 18v25zM188 743l17 39 q8 16 26 4q70 -39 146 -38q78 0 122 36.5t44 100.5q0 90 -88 121q-35 12 -86 12h-21q-18 0 -18 18v35q0 20 18 21h14q53 0 91 14q68 29 67 108q0 51 -37 86t-98 35q-70 0 -139 -41q-16 -10 -27 6l-16 35q-10 20 8 31q98 49 180 49q96 0 154.5 -55t58.5 -137 q0 -117 -108 -162q133 -47 133 -182q0 -92 -66.5 -149.5t-179.5 -57.5q-102 0 -186 45q-21 10 -9 26zM236 -186h227v325z" />
<glyph unicode="&#xbf;" horiz-adv-x="1021" d="M88 -90q0 111 52.5 183.5t158.5 150.5q111 80 148.5 141t41.5 158q4 20 25 20h76q16 0 24 -18q12 -41 13 -82q0 -104 -95 -203q-23 -25 -50 -48.5t-70 -57t-68 -54.5q-100 -84 -100 -190q0 -123 82 -195q80 -70 200 -69q193 0 377 159q16 12 27 -6l43 -84q8 -14 -10 -30 q-188 -174 -445 -174q-184 0 -305 108q-125 113 -125 291zM467 850q0 39 26.5 66.5t67.5 27.5t67.5 -27.5t26.5 -66.5t-26.5 -66.5t-67.5 -27.5t-67.5 27.5t-26.5 66.5z" />
<glyph unicode="&#xc0;" horiz-adv-x="1415" d="M150 18v795q0 279 174 447q147 154 382.5 153.5t385.5 -153.5q172 -170 172 -447v-795q0 -18 -19 -18h-125q-20 0 -20 18v467h-787v-467q0 -18 -20 -18h-123q-20 0 -20 18zM313 631h787v176q0 211 -111 334q-111 121 -282 121q-168 0 -283 -121q-111 -127 -111 -334v-176 zM537 1952q-18 33 14 33h102q14 0 27 -21l184 -342q2 -4 4 -10t2 -11.5t-4 -9.5t-12 -4h-76q-18 0 -28 19z" />
<glyph unicode="&#xc1;" horiz-adv-x="1415" d="M150 18v795q0 279 174 447q147 154 382.5 153.5t385.5 -153.5q172 -170 172 -447v-795q0 -18 -19 -18h-125q-20 0 -20 18v467h-787v-467q0 -18 -20 -18h-123q-20 0 -20 18zM313 631h787v176q0 211 -111 334q-111 121 -282 121q-168 0 -283 -121q-111 -127 -111 -334v-176 zM555 1622l184 342q12 20 27 21h102q14 0 18.5 -11.5t-3.5 -21.5l-213 -346q-10 -18 -29 -19h-76q-28 0 -10 35z" />
<glyph unicode="&#xc2;" horiz-adv-x="1415" d="M150 18v795q0 279 174 447q147 154 382.5 153.5t385.5 -153.5q172 -170 172 -447v-795q0 -18 -19 -18h-125q-20 0 -20 18v467h-787v-467q0 -18 -20 -18h-123q-20 0 -20 18zM313 631h787v176q0 211 -111 334q-111 121 -282 121q-168 0 -283 -121q-111 -127 -111 -334v-176 zM325 1599.5q1 6.5 7 12.5l317 354q16 16 29 16h53q12 0 29 -16l317 -354q6 -6 7 -12.5t-3 -10.5t-12 -4h-94q-18 0 -35 17l-235 258l-236 -258q-16 -16 -35 -17h-94q-8 0 -12 4t-3 10.5z" />
<glyph unicode="&#xc3;" horiz-adv-x="1415" d="M150 18v795q0 279 174 447q147 154 382.5 153.5t385.5 -153.5q172 -170 172 -447v-795q0 -18 -19 -18h-125q-20 0 -20 18v467h-787v-467q0 -18 -20 -18h-123q-20 0 -20 18zM313 631h787v176q0 211 -111 334q-111 121 -282 121q-168 0 -283 -121q-111 -127 -111 -334v-176 zM387 1753q0 84 45 135t127 51q74 0 158 -59q86 -53 125 -53q84 0 92 78q2 20 20 20h47q25 0 25 -20q0 -84 -45 -135.5t-127 -51.5q-68 0 -156 60q-82 53 -127 53q-84 0 -92 -80q-6 -20 -20 -20h-47q-25 -1 -25 22z" />
<glyph unicode="&#xc4;" horiz-adv-x="1415" d="M150 18v795q0 279 174 447q147 154 382.5 153.5t385.5 -153.5q172 -170 172 -447v-795q0 -18 -19 -18h-125q-20 0 -20 18v467h-787v-467q0 -18 -20 -18h-123q-20 0 -20 18zM313 631h787v176q0 211 -111 334q-111 121 -282 121q-168 0 -283 -121q-111 -127 -111 -334v-176 zM422 1780q0 37 26.5 63.5t63.5 26.5q39 0 64.5 -26.5t25.5 -63.5t-25.5 -63.5t-64.5 -26.5q-37 0 -63.5 26.5t-26.5 63.5zM807 1780q0 37 26.5 63.5t63.5 26.5t63.5 -26.5t26.5 -63.5t-26.5 -63.5t-63.5 -26.5t-63.5 26.5t-26.5 63.5z" />
<glyph unicode="&#xc5;" horiz-adv-x="1415" d="M150 18v795q0 279 174 447q147 154 382.5 153.5t385.5 -153.5q172 -170 172 -447v-795q0 -18 -19 -18h-125q-20 0 -20 18v467h-787v-467q0 -18 -20 -18h-123q-20 0 -20 18zM313 631h787v176q0 211 -111 334q-111 121 -282 121q-168 0 -283 -121q-111 -127 -111 -334v-176 zM469 1765q0 98 69.5 168t168.5 70q96 0 165.5 -69.5t69.5 -168t-69.5 -168t-165.5 -69.5q-98 0 -168 68.5t-70 168.5zM545 1765q0 -70 47 -118t115 -48q66 0 113.5 48.5t47.5 117.5q0 68 -48 116t-113 48q-68 0 -115 -48t-47 -116z" />
<glyph unicode="&#xc6;" horiz-adv-x="2068" d="M150 18v795q0 279 174 447q147 154 382.5 153.5t385.5 -153.5q2 -6 8 -9v123q0 20 20 21h856q18 0 19 -21v-104q0 -20 -19 -21h-712v-411v-25v-43h606q18 0 18 -18v-107q0 -18 -18 -18h-606v-482h712q18 0 19 -20v-107q0 -18 -19 -18h-856h-4q-6 0 -10 4q-6 6 -6 14v467 h-787v-467q0 -18 -20 -18h-123q-20 0 -20 18zM313 631h787v176q0 211 -111 334q-111 121 -282 121q-168 0 -283 -121q-111 -127 -111 -334v-176z" />
<glyph unicode="&#xc7;" horiz-adv-x="1349" d="M96 698q0 295 214 505t515 210q233 0 426 -110q23 -12 13 -31l-50 -103q-8 -18 -28 -6q-182 102 -365 103q-225 0 -390 -168t-165 -400q0 -250 163 -410.5t394 -160.5q197 0 369 104q16 12 29 -6l49 -106q6 -16 -10 -27q-188 -104 -402 -112v-52q80 -6 131 -46t51 -107 q0 -96 -77.5 -138.5t-178.5 -42.5q-43 0 -77 7q-16 4 -17 18v45q0 16 17 17q6 0 28.5 -2.5t44.5 -2.5q63 0 109.5 25t46.5 78q0 43 -37 64.5t-92 21.5q-23 0 -43 -2l10 119q-297 16 -487.5 211.5t-190.5 504.5z" />
<glyph unicode="&#xc8;" horiz-adv-x="1224" d="M154 18v1356q0 20 18 21h961q18 0 18 -21v-104q0 -20 -18 -21h-816v-479h709q18 0 18 -18v-107q0 -18 -18 -18h-709v-482h816q18 0 18 -20v-107q0 -18 -18 -18h-961q-18 0 -18 18zM436 1952q-18 33 15 33h102q14 0 27 -21l184 -342q2 -4 4 -10t2 -11.5t-4 -9.5t-12 -4 h-76q-18 0 -29 19z" />
<glyph unicode="&#xc9;" horiz-adv-x="1224" d="M154 18v1356q0 20 18 21h961q18 0 18 -21v-104q0 -20 -18 -21h-816v-479h709q18 0 18 -18v-107q0 -18 -18 -18h-709v-482h816q18 0 18 -20v-107q0 -18 -18 -18h-961q-18 0 -18 18zM514 1622l184 342q12 20 27 21h102q14 0 18.5 -11.5t-3.5 -21.5l-213 -346 q-10 -18 -29 -19h-76q-28 0 -10 35z" />
<glyph unicode="&#xca;" horiz-adv-x="1224" d="M154 18v1356q0 20 18 21h961q18 0 18 -21v-104q0 -20 -18 -21h-816v-479h709q18 0 18 -18v-107q0 -18 -18 -18h-709v-482h816q18 0 18 -20v-107q0 -18 -18 -18h-961q-18 0 -18 18zM249 1599.5q1 6.5 7 12.5l317 354q16 16 29 16h53q12 0 29 -16l317 -354q6 -6 7.5 -12.5 t-3 -10.5t-12.5 -4h-94q-18 0 -35 17l-235 258l-236 -258q-16 -16 -35 -17h-94q-8 0 -12 4t-3 10.5z" />
<glyph unicode="&#xcb;" horiz-adv-x="1224" d="M154 18v1356q0 20 18 21h961q18 0 18 -21v-104q0 -20 -18 -21h-816v-479h709q18 0 18 -18v-107q0 -18 -18 -18h-709v-482h816q18 0 18 -20v-107q0 -18 -18 -18h-961q-18 0 -18 18zM362 1780q0 37 27 63.5t64 26.5q39 0 64.5 -26.5t25.5 -63.5t-25.5 -63.5t-64.5 -26.5 q-37 0 -64 26.5t-27 63.5zM748 1780q0 37 26.5 63.5t63 26.5t63.5 -26.5t27 -63.5t-27 -63.5t-63.5 -26.5t-63 26.5t-26.5 63.5z" />
<glyph unicode="&#xcc;" horiz-adv-x="468" d="M63 1952q-18 33 15 33h102q14 0 27 -21l184 -342q2 -4 4 -10t2 -11.5t-4 -9.5t-12 -4h-76q-18 0 -29 19zM154 18v1356q0 20 18 21h125q20 0 20 -21v-1356q0 -18 -20 -18h-125q-18 0 -18 18z" />
<glyph unicode="&#xcd;" horiz-adv-x="468" d="M80 1622l184 342q12 20 27 21h102q14 0 18.5 -11.5t-3.5 -21.5l-213 -346q-10 -18 -29 -19h-76q-28 0 -10 35zM154 18v1356q0 20 18 21h125q20 0 20 -21v-1356q0 -18 -20 -18h-125q-18 0 -18 18z" />
<glyph unicode="&#xce;" horiz-adv-x="468" d="M-146 1599.5q1 6.5 7 12.5l317 354q16 16 29 16h53q12 0 29 -16l317 -354q6 -6 7 -12.5t-3 -10.5t-12 -4h-94q-18 0 -35 17l-236 258l-235 -258q-16 -16 -35 -17h-94q-8 0 -12 4t-3 10.5zM154 18v1356q0 20 18 21h125q20 0 20 -21v-1356q0 -18 -20 -18h-125q-18 0 -18 18 z" />
<glyph unicode="&#xcf;" horiz-adv-x="468" d="M-47 1780q0 37 26.5 63.5t63.5 26.5q39 0 64.5 -26.5t25.5 -63.5t-25.5 -63.5t-64.5 -26.5q-37 0 -63.5 26.5t-26.5 63.5zM154 18v1356q0 20 18 21h125q20 0 20 -21v-1356q0 -18 -20 -18h-125q-18 0 -18 18zM338 1780q0 37 26.5 63.5t63.5 26.5t63.5 -26.5t26.5 -63.5 t-26.5 -63.5t-63.5 -26.5t-63.5 26.5t-26.5 63.5z" />
<glyph unicode="&#xd0;" horiz-adv-x="1521" d="M-29 647v101q0 18 21 18h172v608q0 20 18 21h500q381 0 582 -221q162 -182 161 -478q0 -418 -315 -596q-182 -100 -459 -100h-469q-18 0 -18 18v609h-172q-21 0 -21 20zM328 137h309q221 0 364 76q256 135 256 483q0 246 -127 385q-154 174 -473 174h-329v-489h323 q20 0 21 -18v-101q0 -20 -21 -20h-323v-490z" />
<glyph unicode="&#xd1;" horiz-adv-x="1515" d="M154 18v1356q0 20 18 21h113q20 0 39 -21l880 -1110v1110q0 20 21 21h116q20 0 21 -21v-1356q0 -18 -21 -18h-114q-23 0 -37 20l-881 1106v-1108q0 -18 -18 -18h-119q-18 0 -18 18zM438 1753q0 84 45 135t127 51q74 0 158 -59q86 -53 125 -53q84 0 92 78q2 20 21 20h47 q25 0 24 -20q0 -84 -45 -135.5t-127 -51.5q-68 0 -155 60q-82 53 -127 53q-84 0 -93 -80q-6 -20 -20 -20h-47q-25 -1 -25 22z" />
<glyph unicode="&#xd2;" horiz-adv-x="1650" d="M96 694q0 303 214 511t515 208t515 -209t214 -510t-214 -507.5t-515 -206.5t-515 206.5t-214 507.5zM268 694.5q0 -233.5 162 -398.5t395.5 -165t394 165t160.5 398.5t-160.5 399.5t-394 166t-395.5 -166t-162 -399.5zM651 1952q-18 33 15 33h102q14 0 27 -21l184 -342 q2 -4 4 -10t2 -11.5t-4 -9.5t-12 -4h-76q-18 0 -29 19z" />
<glyph unicode="&#xd3;" horiz-adv-x="1650" d="M96 694q0 303 214 511t515 208t515 -209t214 -510t-214 -507.5t-515 -206.5t-515 206.5t-214 507.5zM268 694.5q0 -233.5 162 -398.5t395.5 -165t394 165t160.5 398.5t-160.5 399.5t-394 166t-395.5 -166t-162 -399.5zM668 1622l184 342q12 20 27 21h102q14 0 18.5 -11.5 t-4.5 -21.5l-213 -346q-10 -18 -28 -19h-76q-26 0 -10 35z" />
<glyph unicode="&#xd4;" horiz-adv-x="1650" d="M96 694q0 303 214 511t515 208t515 -209t214 -510t-214 -507.5t-515 -206.5t-515 206.5t-214 507.5zM268 694.5q0 -233.5 162 -398.5t395.5 -165t394 165t160.5 398.5t-160.5 399.5t-394 166t-395.5 -166t-162 -399.5zM443 1599.5q1 6.5 8 12.5l317 354q16 16 29 16h53 q12 0 29 -16l317 -354q6 -6 7 -12.5t-3 -10.5t-12 -4h-94q-18 0 -35 17l-236 258l-235 -258q-16 -16 -35 -17h-94q-8 0 -12.5 4t-3.5 10.5z" />
<glyph unicode="&#xd5;" horiz-adv-x="1650" d="M96 694q0 303 214 511t515 208t515 -209t214 -510t-214 -507.5t-515 -206.5t-515 206.5t-214 507.5zM268 694.5q0 -233.5 162 -398.5t395.5 -165t394 165t160.5 398.5t-160.5 399.5t-394 166t-395.5 -166t-162 -399.5zM504 1753q0 84 45 135t127 51q74 0 158 -59 q86 -53 124 -53q84 0 93 78q2 20 20 20h47q25 0 25 -20q0 -84 -45 -135.5t-127 -51.5q-68 0 -156 60q-82 53 -127 53q-84 0 -92 -80q-6 -20 -21 -20h-47q-24 -1 -24 22z" />
<glyph unicode="&#xd6;" horiz-adv-x="1650" d="M96 694q0 303 214 511t515 208t515 -209t214 -510t-214 -507.5t-515 -206.5t-515 206.5t-214 507.5zM268 694.5q0 -233.5 162 -398.5t395.5 -165t394 165t160.5 398.5t-160.5 399.5t-394 166t-395.5 -166t-162 -399.5zM541 1780q0 37 26.5 63.5t63.5 26.5 q39 0 64.5 -26.5t25.5 -63.5t-25.5 -63.5t-64.5 -26.5q-37 0 -63.5 26.5t-26.5 63.5zM926 1780q0 37 26.5 63.5t63.5 26.5t63.5 -26.5t26.5 -63.5t-26.5 -63.5t-63.5 -26.5t-63.5 26.5t-26.5 63.5z" />
<glyph unicode="&#xd7;" horiz-adv-x="985" d="M57 360q-10 14 0 29l334 334l-334 334q-12 12 0 26l74 74q4 4 13.5 4t13.5 -4l334 -334l335 334q4 6 13.5 6t13.5 -6l74 -74q12 -12 0 -26l-336 -334l336 -336q4 -4 4 -13t-4 -14l-74 -73q-14 -12 -27 0l-335 336l-334 -336q-14 -12 -27 0z" />
<glyph unicode="&#xd8;" horiz-adv-x="1650" d="M96 694q0 303 214 511t515 208q236 0 428 -137l84 98q16 20 33 21h92q14 0 18.5 -9.5t-3.5 -19.5l-138 -160q215 -211 215 -512t-214 -507.5t-515 -206.5q-236 0 -428 133l-82 -95q-18 -18 -30 -18h-97q-12 0 -17 8t3 19l137 157q-215 209 -215 510zM268 694 q0 -227 150 -387l731 848q-143 104 -324 105q-233 0 -395 -166.5t-162 -399.5zM500 233q143 -102 325 -102q233 0 394 165t161 398q0 221 -149 387z" />
<glyph unicode="&#xd9;" horiz-adv-x="1478" d="M150 551v823q0 20 20 21h123q20 0 20 -21v-805q0 -201 105 -317q111 -125 319 -125q211 0 322 125q106 117 106 317v805q0 20 19 21h125q20 0 20 -21v-823q0 -246 -135 -397q-158 -174 -455 -174t-454 174q-135 151 -135 397zM567 1952q-18 33 15 33h102q14 0 27 -21 l184 -342q2 -4 4 -10t2 -11.5t-4 -9.5t-12 -4h-76q-18 0 -29 19z" />
<glyph unicode="&#xda;" horiz-adv-x="1478" d="M150 551v823q0 20 20 21h123q20 0 20 -21v-805q0 -201 105 -317q111 -125 319 -125q211 0 322 125q106 117 106 317v805q0 20 19 21h125q20 0 20 -21v-823q0 -246 -135 -397q-158 -174 -455 -174t-454 174q-135 151 -135 397zM582 1622l184 342q12 20 27 21h102 q14 0 18.5 -11.5t-4.5 -21.5l-213 -346q-10 -18 -28 -19h-76q-26 0 -10 35z" />
<glyph unicode="&#xdb;" horiz-adv-x="1478" d="M150 551v823q0 20 20 21h123q20 0 20 -21v-805q0 -201 105 -317q111 -125 319 -125q211 0 322 125q106 117 106 317v805q0 20 19 21h125q20 0 20 -21v-823q0 -246 -135 -397q-158 -174 -455 -174t-454 174q-135 151 -135 397zM357 1599.5q1 6.5 8 12.5l317 354 q16 16 29 16h53q12 0 29 -16l317 -354q6 -6 7 -12.5t-3 -10.5t-12 -4h-94q-18 0 -35 17l-236 258l-235 -258q-16 -16 -35 -17h-94q-8 0 -12.5 4t-3.5 10.5z" />
<glyph unicode="&#xdc;" horiz-adv-x="1478" d="M150 551v823q0 20 20 21h123q20 0 20 -21v-805q0 -201 105 -317q111 -125 319 -125q211 0 322 125q106 117 106 317v805q0 20 19 21h125q20 0 20 -21v-823q0 -246 -135 -397q-158 -174 -455 -174t-454 174q-135 151 -135 397zM457 1780q0 37 26.5 63.5t63.5 26.5 q39 0 64.5 -26.5t25.5 -63.5t-25.5 -63.5t-64.5 -26.5q-37 0 -63.5 26.5t-26.5 63.5zM842 1780q0 37 26.5 63.5t63.5 26.5t63.5 -26.5t26.5 -63.5t-26.5 -63.5t-63.5 -26.5t-63.5 26.5t-26.5 63.5z" />
<glyph unicode="&#xdd;" horiz-adv-x="1249" d="M3 1384.5q3 10.5 20 10.5h141q20 0 33 -21l426 -600l428 600q10 20 30 21h144q14 0 18 -10.5t-4 -20.5l-534 -752v-594q0 -18 -21 -18h-123q-20 0 -20 18v594l-533 752q-8 10 -5 20.5zM477 1622l185 342q12 20 26 21h103q14 0 18 -11.5t-4 -21.5l-213 -346 q-10 -18 -29 -19h-76q-28 0 -10 35z" />
<glyph unicode="&#xde;" horiz-adv-x="1282" d="M154 -279v1653q0 20 18 21h125q20 0 20 -21v-268h404q197 0 321 -98q164 -125 164 -361q0 -242 -178 -371q-119 -88 -328 -88h-383v-467q0 -20 -20 -20h-125q-18 0 -18 20zM317 332h357q164 0 248 61q119 86 118 254q0 160 -106 244q-88 72 -238 72h-379v-631z" />
<glyph unicode="&#xdf;" horiz-adv-x="1130" d="M147 -117v1135q0 172 84 272q98 123 293 123q188 0 285 -84q94 -82 94 -215q0 -82 -43 -140.5t-94 -82t-94 -49t-43 -47.5q0 -27 28.5 -47.5t94 -50t94.5 -46.5q195 -113 194 -303q0 -166 -116 -272q-106 -96 -269 -96q-193 0 -309 92q-16 12 -8 28l41 82q10 18 27 6 q98 -82 245 -82q109 0 176 64q70 63 70 168q0 29 -5 52.5t-22.5 46t-26.5 36.5t-40 36.5t-39 28.5l-49 30q-41 26 -45 28q-8 4 -31 18.5t-31 18.5t-27.5 16.5t-26.5 19.5t-21.5 19t-19.5 21.5t-12 21.5t-10.5 26.5t-3.5 28.5q0 43 41 75t91.5 51.5t91.5 65.5t41 116 q0 90 -56 141q-57 55 -168 55q-119 0 -178 -78q-53 -66 -53 -194v-1135q0 -20 -18 -20h-111q-21 0 -21 20z" />
<glyph unicode="&#xe0;" horiz-adv-x="972" d="M86 252q0 168 190 242q137 51 414 65v31q0 115 -47 170q-53 61 -168 61q-135 0 -280 -84q-20 -12 -29 6l-35 76q-8 16 10 27q143 96 353 96q182 0 270 -100q76 -86 76 -250v-574q0 -18 -19 -18h-96q-18 0 -18 18v33h-9q-123 -72 -278 -71q-137 0 -230 65 q-104 76 -104 207zM229 260q0 -80 69 -121t165 -41q113 0 227 60v288q-205 -8 -305 -36q-156 -39 -156 -150zM317 1534q-18 33 15 33h102q14 0 27 -21l184 -342q2 -4 4 -10t2 -11t-4 -9.5t-12 -4.5h-76q-18 0 -29 19z" />
<glyph unicode="&#xe1;" horiz-adv-x="972" d="M86 252q0 168 190 242q137 51 414 65v31q0 115 -47 170q-53 61 -168 61q-135 0 -280 -84q-20 -12 -29 6l-35 76q-8 16 10 27q143 96 353 96q182 0 270 -100q76 -86 76 -250v-574q0 -18 -19 -18h-96q-18 0 -18 18v33h-9q-123 -72 -278 -71q-137 0 -230 65 q-104 76 -104 207zM229 260q0 -80 69 -121t165 -41q113 0 227 60v288q-205 -8 -305 -36q-156 -39 -156 -150zM328 1202l184 342q12 20 27 21h102q14 0 18.5 -11.5t-4.5 -21.5l-213 -346q-10 -18 -28 -19h-76q-26 0 -10 35z" />
<glyph unicode="&#xe2;" horiz-adv-x="999" d="M86 252q0 168 190 242q137 51 414 65v31q0 115 -47 170q-53 61 -168 61q-135 0 -280 -84q-20 -12 -29 6l-35 76q-8 16 10 27q143 96 353 96q182 0 270 -100q76 -86 76 -250v-574q0 -18 -19 -18h-96q-18 0 -18 18v33h-9q-123 -72 -278 -71q-137 0 -230 65 q-104 76 -104 207zM105 1182q1 6 8 12l317 354q16 16 29 17h53q12 0 29 -17l317 -354q6 -6 7 -12t-3 -10.5t-12 -4.5h-94q-18 0 -35 17l-236 258l-235 -258q-16 -16 -35 -17h-94q-8 0 -12.5 4.5t-3.5 10.5zM229 260q0 -80 69 -121t165 -41q113 0 227 60v288 q-205 -8 -305 -36q-156 -39 -156 -150z" />
<glyph unicode="&#xe3;" horiz-adv-x="972" d="M86 252q0 168 190 242q137 51 414 65v31q0 115 -47 170q-53 61 -168 61q-135 0 -280 -84q-20 -12 -29 6l-35 76q-8 16 10 27q143 96 353 96q182 0 270 -100q76 -86 76 -250v-574q0 -18 -19 -18h-96q-18 0 -18 18v33h-9q-123 -72 -278 -71q-137 0 -230 65 q-104 76 -104 207zM162 1290q0 84 45 135.5t127 51.5q74 0 158 -60q86 -53 124 -53q84 0 93 78q2 20 20 20h47q25 0 25 -20q0 -84 -45 -135.5t-127 -51.5q-68 0 -156 60q-82 53 -127 53q-84 0 -92 -80q-6 -20 -21 -20h-47q-24 -1 -24 22zM229 260q0 -80 69 -121t165 -41 q113 0 227 60v288q-205 -8 -305 -36q-156 -39 -156 -150z" />
<glyph unicode="&#xe4;" horiz-adv-x="972" d="M86 252q0 168 190 242q137 51 414 65v31q0 115 -47 170q-53 61 -168 61q-135 0 -280 -84q-20 -12 -29 6l-35 76q-8 16 10 27q143 96 353 96q182 0 270 -100q76 -86 76 -250v-574q0 -18 -19 -18h-96q-18 0 -18 18v33h-9q-123 -72 -278 -71q-137 0 -230 65 q-104 76 -104 207zM203 1366q0 37 26.5 63.5t63.5 26.5q39 0 64.5 -26.5t25.5 -63.5t-25.5 -63.5t-64.5 -26.5q-37 0 -63.5 26.5t-26.5 63.5zM229 260q0 -80 69 -121t165 -41q113 0 227 60v288q-205 -8 -305 -36q-156 -39 -156 -150zM588 1366q0 37 26.5 63.5t63.5 26.5 t63.5 -26.5t26.5 -63.5t-26.5 -63.5t-63.5 -26.5t-63.5 26.5t-26.5 63.5z" />
<glyph unicode="&#xe5;" horiz-adv-x="972" d="M86 252q0 168 190 242q137 51 414 65v31q0 115 -47 170q-53 61 -168 61q-135 0 -280 -84q-20 -12 -29 6l-35 76q-8 16 10 27q143 96 353 96q182 0 270 -100q76 -86 76 -250v-574q0 -18 -19 -18h-96q-18 0 -18 18v33h-9q-123 -72 -278 -71q-137 0 -230 65 q-104 76 -104 207zM229 260q0 -80 69 -121t165 -41q113 0 227 60v288q-205 -8 -305 -36q-156 -39 -156 -150zM248 1356q0 98 69.5 167.5t167.5 69.5q96 0 166 -69.5t70 -168t-69.5 -168t-166.5 -69.5q-98 0 -167.5 69t-69.5 169zM324 1356q0 -70 47 -118t114 -48 q66 0 114 48t48 118q0 68 -48 116t-114 48q-68 0 -114.5 -48t-46.5 -116z" />
<glyph unicode="&#xe6;" horiz-adv-x="1671" d="M86 246q0 143 172 211q154 61 432 71v62q0 117 -47 176q-51 61 -166 61q-158 0 -284 -82q-23 -14 -29 5l-33 69q-6 16 10 27q145 96 353 96q121 0 188 -43q72 -45 109 -162q45 92 133 148q90 57 227 57q215 0 338 -147q102 -131 94 -340q0 -23 -22 -23h-713 q6 -133 78 -221q94 -115 260 -115q152 0 284 82q20 14 31 -4l37 -70q8 -12 -10 -26q-145 -98 -350 -98q-240 0 -375 157q-96 -88 -182 -121q-92 -37 -220 -36q-139 0 -225 73q-90 74 -90 193zM229 250q0 -76 64 -121q57 -41 151 -41q102 0 168 29q68 27 142 96 q-57 96 -60 217q-213 0 -346 -49q-119 -43 -119 -131zM848 528h592q-2 127 -74 207q-80 90 -213 90q-152 0 -233 -98q-66 -82 -72 -199z" />
<glyph unicode="&#xe7;" horiz-adv-x="964" d="M92 461q0 180 105 305q145 176 395 176q164 0 282 -82q18 -14 11 -26l-43 -78q-10 -18 -31 -6q-100 63 -219 63q-168 0 -266 -117q-82 -94 -82 -235q0 -158 94 -258q92 -98 256 -99q127 0 223 58q23 16 31 -4l41 -76q8 -12 -10 -27q-104 -70 -258 -75v-52q80 -6 131 -46 t51 -107q0 -96 -78 -138.5t-178 -42.5q-43 0 -78 7q-16 4 -16 18v45q0 16 16 17q6 0 28.5 -2.5t45.5 -2.5q63 0 109 25t46 78q0 43 -36.5 64.5t-92.5 21.5q-23 0 -43 -2l11 119q-203 16 -318 137q-127 127 -127 342z" />
<glyph unicode="&#xe8;" horiz-adv-x="1073" d="M92 473q0 201 123 334q125 135 338 135q215 0 336 -147q109 -137 96 -353q0 -23 -24 -22h-713q10 -123 80 -205q94 -113 262 -113q141 0 278 82q23 14 31 -4l39 -76q8 -14 -8 -26q-145 -98 -352 -98q-233 0 -365 149q-121 133 -121 344zM248 528h594q-6 125 -76 205 q-82 88 -213 88q-147 0 -231 -96q-68 -80 -74 -197zM369 1534q-18 33 14 33h102q14 0 27 -21l184 -342q2 -4 4 -10t2 -11t-4 -9.5t-12 -4.5h-76q-18 0 -28 19z" />
<glyph unicode="&#xe9;" horiz-adv-x="1073" d="M92 473q0 201 123 334q125 135 338 135q215 0 336 -147q109 -137 96 -353q0 -23 -24 -22h-713q10 -123 80 -205q94 -113 262 -113q141 0 278 82q23 14 31 -4l39 -76q8 -14 -8 -26q-145 -98 -352 -98q-233 0 -365 149q-121 133 -121 344zM248 528h594q-6 125 -76 205 q-82 88 -213 88q-147 0 -231 -96q-68 -80 -74 -197zM377 1202l184 342q12 20 27 21h102q14 0 18.5 -11.5t-3.5 -21.5l-213 -346q-10 -18 -29 -19h-76q-26 0 -10 35z" />
<glyph unicode="&#xea;" horiz-adv-x="1073" d="M92 473q0 201 123 334q125 135 338 135q215 0 336 -147q109 -137 96 -353q0 -23 -24 -22h-713q10 -123 80 -205q94 -113 262 -113q141 0 278 82q23 14 31 -4l39 -76q8 -14 -8 -26q-145 -98 -352 -98q-233 0 -365 149q-121 133 -121 344zM155 1182q1 6 7 12l317 354 q16 16 29 17h53q12 0 29 -17l317 -354q6 -6 7 -12t-3 -10.5t-12 -4.5h-94q-18 0 -35 17l-235 258l-236 -258q-16 -16 -35 -17h-94q-8 0 -12 4.5t-3 10.5zM248 528h594q-6 125 -76 205q-82 88 -213 88q-147 0 -231 -96q-68 -80 -74 -197z" />
<glyph unicode="&#xeb;" horiz-adv-x="1073" d="M92 473q0 201 123 334q125 135 338 135q215 0 336 -147q109 -137 96 -353q0 -23 -24 -22h-713q10 -123 80 -205q94 -113 262 -113q141 0 278 82q23 14 31 -4l39 -76q8 -14 -8 -26q-145 -98 -352 -98q-233 0 -365 149q-121 133 -121 344zM248 528h594q-6 125 -76 205 q-82 88 -213 88q-147 0 -231 -96q-68 -80 -74 -197zM252 1366q0 37 26.5 63.5t63.5 26.5q39 0 64.5 -26.5t25.5 -63.5t-25.5 -63.5t-64.5 -26.5q-37 0 -63.5 26.5t-26.5 63.5zM637 1366q0 37 26.5 63.5t63.5 26.5t63.5 -26.5t26.5 -63.5t-26.5 -63.5t-63.5 -26.5t-63.5 26.5 t-26.5 63.5z" />
<glyph unicode="&#xec;" horiz-adv-x="446" d="M55 1534q-18 33 15 33h102q14 0 27 -21l184 -342q2 -4 4 -10t2 -11t-4 -9.5t-12 -4.5h-76q-18 0 -29 19zM147 18v887q0 20 21 21h111q18 0 18 -21v-887q0 -18 -18 -18h-111q-21 0 -21 18z" />
<glyph unicode="&#xed;" horiz-adv-x="446" d="M63 1202l185 342q12 20 26 21h103q14 0 18 -11.5t-4 -21.5l-213 -346q-10 -18 -28 -19h-76q-29 0 -11 35zM147 18v887q0 20 21 21h111q18 0 18 -21v-887q0 -18 -18 -18h-111q-21 0 -21 18z" />
<glyph unicode="&#xee;" horiz-adv-x="446" d="M-157 1182q1 6 7 12l318 354q16 16 29 17h53q12 0 29 -17l317 -354q6 -6 7 -12t-3 -10.5t-12 -4.5h-94q-18 0 -35 17l-236 258l-235 -258q-16 -16 -35 -17h-94q-8 0 -12.5 4.5t-3.5 10.5zM147 18v887q0 20 21 21h111q18 0 18 -21v-887q0 -18 -18 -18h-111q-21 0 -21 18z " />
<glyph unicode="&#xef;" horiz-adv-x="446" d="M-59 1366q0 37 26.5 63.5t63.5 26.5q39 0 64.5 -26.5t25.5 -63.5t-25.5 -63.5t-64.5 -26.5q-37 0 -63.5 26.5t-26.5 63.5zM147 18v887q0 20 21 21h111q18 0 18 -21v-887q0 -18 -18 -18h-111q-21 0 -21 18zM326 1366q0 37 26.5 63.5t63.5 26.5t63.5 -26.5t26.5 -63.5 t-26.5 -63.5t-63.5 -26.5t-63.5 26.5t-26.5 63.5z" />
<glyph unicode="&#xf0;" horiz-adv-x="1044" d="M94 424q0 176 113 285q125 125 301 125q127 0 240 -74q-68 203 -234 370l-188 -147q-16 -12 -27 2l-41 51q-10 14 6 29l170 133q-55 55 -149 121q-18 10 -6 27l69 69q12 14 33 2q94 -61 168 -133l168 133q18 14 28 0l39 -53q12 -16 -2 -27l-157 -123 q152 -160 241.5 -357.5t89.5 -399.5q0 -229 -123.5 -353t-312.5 -124q-168 0 -282 98q-144 123 -144 346zM233 424q0 -143 77 -231.5t208 -88.5q129 0 213 90.5t84 262.5q0 78 -20 176q-125 82 -263 82q-115 0 -207 -76t-92 -215z" />
<glyph unicode="&#xf1;" horiz-adv-x="1134" d="M147 18v887q0 20 21 21h104q20 0 21 -21v-137h6q92 174 324 174q172 0 268 -84q111 -98 110 -309v-531q0 -18 -20 -18h-109q-20 0 -20 18v498q0 166 -76 236q-63 59 -182 59q-164 0 -242 -141q-53 -100 -53 -244v-408q0 -18 -18 -18h-113q-21 0 -21 18zM242 1290 q0 84 45 135.5t127 51.5q74 0 157 -60q86 -53 125 -53q84 0 92 78q2 20 21 20h47q25 0 25 -20q0 -84 -45 -135.5t-127 -51.5q-68 0 -156 60q-82 53 -127 53q-84 0 -92 -80q-6 -20 -21 -20h-47q-24 -1 -24 22z" />
<glyph unicode="&#xf2;" horiz-adv-x="1161" d="M92 461q0 209 137 342q139 139 352.5 139t352.5 -139q137 -133 137 -342t-137 -342q-139 -139 -352 -139t-353 139q-137 133 -137 342zM240 460.5q0 -151.5 92 -249.5q96 -109 249.5 -109t249.5 109q92 98 92.5 249.5t-92.5 250.5q-96 109 -249.5 108.5t-249.5 -108.5 q-92 -99 -92 -250.5zM412 1534q-18 33 14 33h102q14 0 27 -21l184 -342q2 -4 4 -10t2 -11t-4 -9.5t-12 -4.5h-76q-18 0 -28 19z" />
<glyph unicode="&#xf3;" horiz-adv-x="1161" d="M92 461q0 209 137 342q139 139 352.5 139t352.5 -139q137 -133 137 -342t-137 -342q-139 -139 -352 -139t-353 139q-137 133 -137 342zM240 460.5q0 -151.5 92 -249.5q96 -109 249.5 -109t249.5 109q92 98 92.5 249.5t-92.5 250.5q-96 109 -249.5 108.5t-249.5 -108.5 q-92 -99 -92 -250.5zM420 1202l184 342q12 20 27 21h102q14 0 18.5 -11.5t-3.5 -21.5l-213 -346q-10 -18 -29 -19h-76q-28 0 -10 35z" />
<glyph unicode="&#xf4;" horiz-adv-x="1161" d="M92 461q0 209 137 342q139 139 352.5 139t352.5 -139q137 -133 137 -342t-137 -342q-139 -139 -352 -139t-353 139q-137 133 -137 342zM200 1182q1 6 7 12l317 354q16 16 29 17h53q12 0 29 -17l317 -354q6 -6 7.5 -12t-3 -10.5t-12.5 -4.5h-94q-18 0 -35 17l-235 258 l-236 -258q-16 -16 -35 -17h-94q-8 0 -12 4.5t-3 10.5zM240 460.5q0 -151.5 92 -249.5q96 -109 249.5 -109t249.5 109q92 98 92.5 249.5t-92.5 250.5q-96 109 -249.5 108.5t-249.5 -108.5q-92 -99 -92 -250.5z" />
<glyph unicode="&#xf5;" horiz-adv-x="1161" d="M92 461q0 209 137 342q139 139 352.5 139t352.5 -139q137 -133 137 -342t-137 -342q-139 -139 -352 -139t-353 139q-137 133 -137 342zM240 460.5q0 -151.5 92 -249.5q96 -109 249.5 -109t249.5 109q92 98 92.5 249.5t-92.5 250.5q-96 109 -249.5 108.5t-249.5 -108.5 q-92 -99 -92 -250.5zM256 1290q0 84 45 135.5t127 51.5q74 0 158 -60q86 -53 125 -53q84 0 92 78q2 20 20 20h47q25 0 25 -20q0 -84 -45 -135.5t-127 -51.5q-68 0 -156 60q-82 53 -127 53q-84 0 -92 -80q-6 -20 -20 -20h-47q-25 -1 -25 22z" />
<glyph unicode="&#xf6;" horiz-adv-x="1161" d="M92 461q0 209 137 342q139 139 352.5 139t352.5 -139q137 -133 137 -342t-137 -342q-139 -139 -352 -139t-353 139q-137 133 -137 342zM240 460.5q0 -151.5 92 -249.5q96 -109 249.5 -109t249.5 109q92 98 92.5 249.5t-92.5 250.5q-96 109 -249.5 108.5t-249.5 -108.5 q-92 -99 -92 -250.5zM297 1366q0 37 26.5 63.5t63.5 26.5q39 0 64.5 -26.5t25.5 -63.5t-25.5 -63.5t-64.5 -26.5q-37 0 -63.5 26.5t-26.5 63.5zM682 1366q0 37 26.5 63.5t63.5 26.5t63.5 -26.5t26.5 -63.5t-26.5 -63.5t-63.5 -26.5t-63.5 26.5t-26.5 63.5z" />
<glyph unicode="&#xf7;" horiz-adv-x="1191" d="M80 672v102q0 18 18 19h994q20 0 20 -19v-102q0 -20 -20 -21h-994q-18 1 -18 21zM500 1163q0 39 27.5 65.5t68.5 26.5q39 0 65.5 -26.5t26.5 -65.5t-26.5 -66.5t-65.5 -27.5q-41 0 -68.5 27.5t-27.5 66.5zM502 281q0 41 26.5 68.5t67.5 27.5t67.5 -27.5t26.5 -68.5 q0 -39 -27.5 -66t-66.5 -27t-66.5 27t-27.5 66z" />
<glyph unicode="&#xf8;" horiz-adv-x="1177" d="M92 461q0 209 137 342q139 139 353 139q164 0 290 -88l46 51q20 20 30 21h56q14 0 17 -9.5t-5 -19.5l-82 -94q137 -133 137 -342t-137 -342q-139 -139 -352 -139q-162 0 -285 81l-37 -43q-14 -18 -31 -18h-55q-33 0 -12 27l74 86l-7 6q-137 133 -137 342zM240 461 q0 -147 86 -244l460 535q-86 68 -204 67q-154 0 -250 -108q-92 -98 -92 -250zM385 162q86 -59 197 -60q154 0 249 109q92 98 93 250q0 139 -80 235z" />
<glyph unicode="&#xf9;" horiz-adv-x="1116" d="M133 391v514q0 20 19 21h110q20 0 21 -21v-499q0 -113 36 -181q68 -113 240 -112q178 0 238 110q37 63 37 183v499q0 20 20 21h111q18 0 18 -21v-514q0 -162 -68 -262q-102 -150 -356 -149q-256 0 -358 149q-68 100 -68 262zM389 1534q-18 33 14 33h103q14 0 26 -21 l185 -342q2 -4 4 -10t2 -11t-4 -9.5t-12 -4.5h-76q-18 0 -29 19z" />
<glyph unicode="&#xfa;" horiz-adv-x="1116" d="M133 391v514q0 20 19 21h110q20 0 21 -21v-499q0 -113 36 -181q68 -113 240 -112q178 0 238 110q37 63 37 183v499q0 20 20 21h111q18 0 18 -21v-514q0 -162 -68 -262q-102 -150 -356 -149q-256 0 -358 149q-68 100 -68 262zM397 1202l185 342q12 20 26 21h103 q14 0 18 -11.5t-4 -21.5l-213 -346q-10 -18 -29 -19h-75q-27 0 -11 35z" />
<glyph unicode="&#xfb;" horiz-adv-x="1116" d="M133 391v514q0 20 19 21h110q20 0 21 -21v-499q0 -113 36 -181q68 -113 240 -112q178 0 238 110q37 63 37 183v499q0 20 20 21h111q18 0 18 -21v-514q0 -162 -68 -262q-102 -150 -356 -149q-256 0 -358 149q-68 100 -68 262zM177 1182q1 6 7 12l318 354q16 16 28 17h54 q12 0 28 -17l318 -354q6 -6 7 -12t-3 -10.5t-12 -4.5h-95q-18 0 -34 17l-236 258l-235 -258q-16 -16 -35 -17h-94q-8 0 -12.5 4.5t-3.5 10.5z" />
<glyph unicode="&#xfc;" horiz-adv-x="1116" d="M133 391v514q0 20 19 21h110q20 0 21 -21v-499q0 -113 36 -181q68 -113 240 -112q178 0 238 110q37 63 37 183v499q0 20 20 21h111q18 0 18 -21v-514q0 -162 -68 -262q-102 -150 -356 -149q-256 0 -358 149q-68 100 -68 262zM274 1366q0 37 27 63.5t64 26.5 q39 0 64.5 -26.5t25.5 -63.5t-26 -63.5t-64 -26.5q-37 0 -64 26.5t-27 63.5zM659 1366q0 37 27 63.5t63.5 26.5t63.5 -26.5t27 -63.5t-27 -63.5t-63.5 -26.5t-63.5 26.5t-27 63.5z" />
<glyph unicode="&#xfd;" horiz-adv-x="976" d="M10 899q-10 27 17 27h133q25 0 30 -23l318 -772l287 772q6 23 30 23h123q25 0 15 -27l-369 -948q-80 -201 -178 -305q-133 -129 -332 -121q-16 0 -16 16v113q0 14 18 14q4 0 16.5 -1t22.5 -1q111 0 194 94q63 74 111 185zM326 1202l184 342q12 20 27 21h102 q14 0 18.5 -11.5t-4.5 -21.5l-213 -346q-10 -18 -28 -19h-76q-28 0 -10 35z" />
<glyph unicode="&#xfe;" horiz-adv-x="1073" d="M147 -455v1829q0 20 21 21h111q18 0 18 -21v-444q63 12 147 12q252 0 398 -133q141 -131 141 -346t-117 -338q-131 -145 -352 -145q-127 0 -217 40v-475q0 -18 -18 -18h-111q-21 0 -21 18zM297 145q86 -43 203 -43q147 0 241 95q92 88 93 266q0 164 -99 258 q-104 100 -276 100q-63 0 -162 -12v-664z" />
<glyph unicode="&#xff;" horiz-adv-x="976" d="M10 899q-10 27 17 27h133q25 0 30 -23l318 -772l287 772q6 23 30 23h123q25 0 15 -27l-369 -948q-80 -201 -178 -305q-133 -129 -332 -121q-16 0 -16 16v113q0 14 18 14q4 0 16.5 -1t22.5 -1q111 0 194 94q63 74 111 185zM203 1366q0 37 26.5 63.5t63.5 26.5 q39 0 64.5 -26.5t25.5 -63.5t-25.5 -63.5t-64.5 -26.5q-37 0 -63.5 26.5t-26.5 63.5zM588 1366q0 37 26.5 63.5t63.5 26.5t63.5 -26.5t26.5 -63.5t-26.5 -63.5t-63.5 -26.5t-63.5 26.5t-26.5 63.5z" />
<glyph unicode="&#x152;" horiz-adv-x="2457" d="M96 694q0 303 214 511t515 208q166 0 312.5 -69.5t248.5 -190.5v221q0 20 19 21h960q18 0 19 -21v-104q0 -20 -19 -21h-815v-479h709q18 0 18 -18v-107q0 -18 -18 -18h-709v-13v-469h815q18 0 19 -20v-107q0 -18 -19 -18h-960q-18 0 -19 18v218q-102 -121 -248.5 -188.5 t-312.5 -67.5q-301 0 -515 206.5t-214 507.5zM268 694.5q0 -233.5 162 -398.5t395.5 -165t394 165t160.5 398.5t-160.5 399.5t-394 166t-395.5 -166t-162 -399.5z" />
<glyph unicode="&#x153;" horiz-adv-x="1906" d="M92 461q0 209 137 342q139 139 352.5 139t352.5 -139q33 -33 59 -72q29 47 56 76q125 135 337 135q215 0 336 -147q109 -137 97 -353q0 -23 -25 -22h-713q10 -123 80 -205q94 -113 262 -113q141 0 279 82q23 14 31 -4l39 -76q8 -14 -9 -26q-145 -98 -352 -98 q-233 0 -364 149q-37 41 -52 66q-33 -47 -61 -76q-139 -139 -352 -139t-353 139q-137 133 -137 342zM240 460.5q0 -151.5 92 -249.5q96 -109 249.5 -109t249.5 109q92 98 92.5 249.5t-92.5 250.5q-96 109 -249.5 108.5t-249.5 -108.5q-92 -99 -92 -250.5zM1081 528h594 q-6 125 -76 205q-82 88 -213 88q-147 0 -231 -96q-68 -80 -74 -197z" />
<glyph unicode="&#x178;" horiz-adv-x="1249" d="M3 1384.5q3 10.5 20 10.5h141q20 0 33 -21l426 -600l428 600q10 20 30 21h144q14 0 18 -10.5t-4 -20.5l-534 -752v-594q0 -18 -21 -18h-123q-20 0 -20 18v594l-533 752q-8 10 -5 20.5zM340 1780q0 37 26.5 63.5t63.5 26.5q39 0 64.5 -26.5t25.5 -63.5t-25.5 -63.5 t-64.5 -26.5q-37 0 -63.5 26.5t-26.5 63.5zM725 1780q0 37 26.5 63.5t63.5 26.5t63.5 -26.5t26.5 -63.5t-26.5 -63.5t-63.5 -26.5t-63.5 26.5t-26.5 63.5z" />
<glyph unicode="&#x2c6;" horiz-adv-x="854" d="M46 1182q1 6 7 12l318 354q16 16 28 17h54q12 0 28 -17l318 -354q6 -6 7 -12t-3 -10.5t-12 -4.5h-95q-18 0 -34 17l-236 258l-236 -258q-16 -16 -34 -17h-95q-8 0 -12 4.5t-3 10.5z" />
<glyph unicode="&#x2dc;" horiz-adv-x="854" d="M106 1290q0 84 45.5 135.5t127.5 51.5q74 0 157 -60q86 -53 125 -53q84 0 92 78q2 20 21 20h47q25 0 24 -20q0 -84 -45 -135.5t-127 -51.5q-68 0 -155 60q-82 53 -127 53q-84 0 -92 -80q-6 -20 -21 -20h-47q-25 -1 -25 22z" />
<glyph unicode="&#x2000;" horiz-adv-x="1001" />
<glyph unicode="&#x2001;" horiz-adv-x="2002" />
<glyph unicode="&#x2002;" horiz-adv-x="1001" />
<glyph unicode="&#x2003;" horiz-adv-x="2002" />
<glyph unicode="&#x2004;" horiz-adv-x="667" />
<glyph unicode="&#x2005;" horiz-adv-x="499" />
<glyph unicode="&#x2006;" horiz-adv-x="333" />
<glyph unicode="&#x2007;" horiz-adv-x="333" />
<glyph unicode="&#x2008;" horiz-adv-x="249" />
<glyph unicode="&#x2009;" horiz-adv-x="399" />
<glyph unicode="&#x200a;" horiz-adv-x="110" />
<glyph unicode="&#x2010;" horiz-adv-x="1021" d="M182 543v102q0 18 19 19h620q18 0 19 -19v-102q0 -20 -19 -21h-620q-19 1 -19 21z" />
<glyph unicode="&#x2011;" horiz-adv-x="1021" d="M182 543v102q0 18 19 19h620q18 0 19 -19v-102q0 -20 -19 -21h-620q-19 1 -19 21z" />
<glyph unicode="&#x2012;" horiz-adv-x="1021" d="M182 543v102q0 18 19 19h620q18 0 19 -19v-102q0 -20 -19 -21h-620q-19 1 -19 21z" />
<glyph unicode="&#x2013;" horiz-adv-x="1433" d="M182 461v106q0 20 19 21h1030q20 0 20 -21v-106q0 -20 -20 -21h-1030q-19 1 -19 21z" />
<glyph unicode="&#x2014;" horiz-adv-x="2519" d="M182 461v106q0 20 19 21h2115q20 0 21 -21v-106q0 -20 -21 -21h-2115q-19 1 -19 21z" />
<glyph unicode="&#x2018;" horiz-adv-x="428" d="M109 1194q-2 70 45 135.5t114 89.5q20 6 29 -8l16 -22q10 -16 -6 -29q-63 -49 -63 -84q0 -25 37.5 -54.5t37.5 -72.5q0 -41 -26.5 -66.5t-69.5 -25.5q-110 0 -114 137z" />
<glyph unicode="&#x2019;" horiz-adv-x="428" d="M109 1323q0 41 26.5 66.5t69.5 25.5q111 0 114 -137q2 -72 -45 -137.5t-114 -87.5q-18 -8 -31 6l-16 24q-10 16 8 27q61 51 61 84q0 25 -36.5 55.5t-36.5 73.5z" />
<glyph unicode="&#x201a;" horiz-adv-x="401" d="M100 72q0 41 26 65.5t71 24.5q111 0 114 -137q2 -70 -45 -135.5t-114 -90.5q-20 -6 -31 8l-17 23q-8 16 9 29q61 51 61 84q0 23 -37 53.5t-37 75.5z" />
<glyph unicode="&#x201c;" horiz-adv-x="743" d="M109 1194q-2 68 45 134.5t114 90.5q20 6 29 -8l16 -22q10 -16 -6 -29q-63 -45 -63 -84q0 -25 37.5 -54.5t37.5 -72.5q0 -41 -26.5 -66.5t-69.5 -25.5q-114 0 -114 137zM424 1194q-2 70 45 135.5t115 89.5q20 6 28 -8l17 -22q10 -16 -6 -29q-63 -49 -64 -84 q0 -25 38 -54.5t38 -72.5q0 -41 -26.5 -66.5t-69.5 -25.5q-111 0 -115 137z" />
<glyph unicode="&#x201d;" horiz-adv-x="743" d="M109 1323q0 41 26.5 66.5t69.5 25.5q111 0 114 -137q2 -72 -45 -137.5t-114 -87.5q-18 -8 -31 6l-16 24q-10 16 8 27q61 51 61 84q0 25 -36.5 55.5t-36.5 73.5zM424 1323q0 41 26.5 66.5t69.5 25.5q111 0 115 -137q2 -72 -46 -137.5t-116 -87.5q-20 -8 -29 6l-16 24 q-8 14 6 27q63 49 64 84q0 25 -37 55.5t-37 73.5z" />
<glyph unicode="&#x201e;" horiz-adv-x="716" d="M100 72q0 41 26 65.5t71 24.5q111 0 114 -137q2 -70 -45 -135.5t-114 -90.5q-20 -6 -31 8l-17 23q-8 16 9 29q61 51 61 84q0 23 -37 53.5t-37 75.5zM416 72q0 41 25.5 65.5t70.5 24.5q111 0 115 -137q2 -70 -46.5 -135.5t-115.5 -90.5q-20 -6 -29 8l-16 23q-8 14 6 29 q63 49 63 84q0 23 -36.5 53.5t-36.5 75.5z" />
<glyph unicode="&#x2022;" horiz-adv-x="1044" d="M109 698q0 170 121.5 292t291.5 122t292 -122t122 -292t-122 -291.5t-292 -121.5t-291.5 121.5t-121.5 291.5z" />
<glyph unicode="&#x2026;" horiz-adv-x="1398" d="M100 76q0 39 28 66.5t66.5 27.5t66.5 -27.5t28 -66.5t-28 -66.5t-66.5 -27.5t-66.5 27.5t-28 66.5zM612 76q0 39 28 66.5t66.5 27.5t65.5 -27.5t27 -66.5t-27 -66.5t-65.5 -27.5t-66.5 27.5t-28 66.5zM1122 76q0 39 28 66.5t69 27.5q39 0 65.5 -27.5t26.5 -66.5 t-27 -66.5t-65 -27.5q-41 0 -69 27.5t-28 66.5z" />
<glyph unicode="&#x202f;" horiz-adv-x="399" />
<glyph unicode="&#x2039;" horiz-adv-x="702" d="M63 465q0 12 15 31l391 424q18 18 39 18h110q18 0 21.5 -10t-6.5 -25l-397 -438l397 -436q10 -16 7 -26.5t-22 -10.5h-110q-20 0 -39 20l-391 424q-15 15 -15 29z" />
<glyph unicode="&#x203a;" horiz-adv-x="702" d="M61.5 2q-4.5 10 8.5 27l397 436l-397 438q-12 14 -8 24.5t22 10.5h109q23 0 38 -18l394 -424q14 -18 14 -31q0 -14 -14 -29l-394 -424q-14 -20 -38 -20h-109q-18 0 -22.5 10z" />
<glyph unicode="&#x205f;" horiz-adv-x="499" />
<glyph unicode="&#x20ac;" d="M-23 535v49q0 20 19 20h108q-4 31 -4 94q0 59 6 90h-110q-18 0 -19 19v51q0 18 19 19h127q51 197 205 344q205 193 485 192q240 0 424 -108q20 -14 12 -33l-49 -103q-6 -18 -26 -6q-174 102 -363 103q-197 0 -346 -136q-119 -109 -164 -253h733q18 0 19 -19v-51 q0 -18 -19 -19h-760q-8 -41 -8 -90q0 -47 6 -94h648q18 0 18 -20v-49q0 -20 -18 -21h-619q43 -156 158 -258q147 -129 354 -129q197 0 365 104q18 12 28 -6l47 -104q10 -18 -8 -29q-190 -113 -432 -112q-274 0 -463 157q-180 145 -231 377h-123q-19 1 -19 21z" />
<glyph unicode="&#x2122;" horiz-adv-x="1589" d="M57 1393v47q0 20 19 20h559q20 0 20 -20v-47q0 -20 -20 -21h-229v-627q0 -18 -21 -18h-57q-20 0 -21 18v627h-231q-19 1 -19 21zM739 739v701q0 20 19 20h53q23 0 35 -20l258 -434l258 434q14 20 37 20h53q18 0 18 -20v-701q0 -18 -18 -18h-57q-18 0 -19 18v549 l-231 -385q-12 -20 -29 -20h-24q-16 0 -29 20l-229 385v-549q0 -18 -21 -18h-55q-19 0 -19 18z" />
<glyph unicode="&#xe000;" horiz-adv-x="925" d="M0 925h925v-925h-925v925z" />
<glyph unicode="&#xfb01;" horiz-adv-x="1011" d="M55 825v80q0 20 21 21h119v137q0 156 65 244q80 104 244 104q158 0 272 -86q16 -12 8 -27l-36 -75q-10 -23 -31 -6q-90 68 -185 67q-100 0 -145 -63q-43 -57 -43 -172v-123h500q20 0 20 -21v-887q0 -18 -20 -18h-111q-18 0 -18 18v789h-371v-789q0 -18 -20 -18h-111 q-18 0 -18 18v789h-119q-21 0 -21 18z" />
<glyph unicode="&#xfb02;" horiz-adv-x="1013" d="M55 825v80q0 20 21 21h119v147q0 340 342 340q188 0 311 -70q18 -8 18 -28v-1297q0 -18 -18 -18h-111q-20 0 -20 18v1196q0 16 -15 29q-68 45 -167 45q-190 0 -191 -239v-123h260q18 0 19 -21v-80q0 -18 -19 -18h-260v-789q0 -18 -20 -18h-111q-18 0 -18 18v789h-119 q-21 0 -21 18z" />
<glyph unicode="&#xfb03;" horiz-adv-x="1558" d="M55 825v80q0 20 21 21h119v125q0 188 75 266q68 74 195 74q154 0 258 -84q18 -10 8 -27l-33 -72q-10 -20 -30 -4q-82 59 -168 60q-76 0 -119 -50q-37 -49 -37 -178v-110h397v137q0 160 66 244q78 104 242 104q160 0 274 -86q16 -12 8 -27l-37 -75q-12 -18 -32 -6 q-90 68 -183 67q-100 0 -147 -63q-41 -55 -41 -172v-123h500q20 0 20 -21v-887q0 -18 -20 -18h-111q-18 0 -18 18v789h-371v-789q0 -18 -21 -18h-110q-18 0 -19 18v789h-397v-789q0 -18 -20 -18h-111q-18 0 -18 18v789h-119q-21 0 -21 18z" />
<glyph unicode="&#xfb04;" horiz-adv-x="1560" d="M55 825v80q0 20 21 21h119v125q0 188 75 266q68 74 195 74q154 0 258 -84q18 -10 8 -27l-33 -72q-10 -20 -30 -4q-82 59 -168 60q-76 0 -119 -50q-37 -49 -37 -178v-110h397v147q0 340 342 340q188 0 310 -70q20 -8 20 -28v-1297q0 -18 -20 -18h-111q-18 0 -18 18v1196 q0 16 -15 29q-68 45 -168 45q-190 0 -190 -239v-123h258q20 0 20 -21v-80q0 -18 -20 -18h-258v-789q0 -18 -21 -18h-110q-18 0 -19 18v789h-397v-789q0 -18 -20 -18h-111q-18 0 -18 18v789h-119q-21 0 -21 18z" />
</font>
</defs>
</svg>
